<?xml version="1.0" standalone="no"?>
<!DOCTYPE svg PUBLIC "-//W3C//DTD SVG 1.1//EN" "http://www.w3.org/Graphics/SVG/1.1/DTD/svg11.dtd" >
<svg xmlns="http://www.w3.org/2000/svg" xmlns:xlink="http://www.w3.org/1999/xlink" version="1.1">
<metadata>
Created by FontForge 20150824 at Fri Apr 15 20:33:21 2016
 By Everything Fonts
</metadata>
<defs>
<font id="iconic" horiz-adv-x="751" >
  <font-face 
    font-family="iconic"
    font-weight="400"
    font-stretch="normal"
    units-per-em="800"
    panose-1="2 0 5 3 0 0 0 0 0 0"
    ascent="750"
    descent="-50"
    x-height="650"
    bbox="0 -100 914 891"
    underline-thickness="0"
    underline-position="0"
    unicode-range="U+0027-E127"
  />
<missing-glyph horiz-adv-x="800" 
 />
    <glyph glyph-name=".notdef" horiz-adv-x="800" 
 />
    <glyph glyph-name=".notdef" horiz-adv-x="800" 
 />
    <glyph glyph-name=".null" horiz-adv-x="0" 
 />
    <glyph glyph-name="nonmarkingreturn" horiz-adv-x="266" 
 />
    <glyph glyph-name="quotesingle" unicode="'" horiz-adv-x="800" 
d="M800 650h-800v100h800v-100zM500 450h-500v100h500v-100zM800 150h-800v100h800v-100zM600 -50h-600v100h600v-100zM800 0q0 -21 -14.5 -35.5t-35.5 -14.5t-35.5 14.5t-14.5 35.5t14.5 35.5t35.5 14.5t35.5 -14.5t14.5 -35.5z" />
    <glyph glyph-name="plus" unicode="+" horiz-adv-x="800" 
d="M800 650h-800v100h800v-100zM500 450h-500v100h500v-100zM800 250h-800v100h800v-100zM0 0q0 21 14.5 35.5t35.5 14.5t35.5 -14.5t14.5 -35.5t-14.5 -35.5t-35.5 -14.5t-35.5 14.5t-14.5 35.5zM400 0q0 21 14.5 35.5t35.5 14.5t35.5 -14.5t14.5 -35.5t-14.5 -35.5
t-35.5 -14.5t-35.5 14.5t-14.5 35.5zM200 0q0 21 14.5 35.5t35.5 14.5t35.5 -14.5t14.5 -35.5t-14.5 -35.5t-35.5 -14.5t-35.5 14.5t-14.5 35.5z" />
    <glyph glyph-name="comma" unicode="," horiz-adv-x="600" 
d="M400 750h-200q-83 0 -141.5 -58.5t-58.5 -141.5v-400q0 -83 58.5 -141.5t141.5 -58.5h200q83 0 141.5 58.5t58.5 141.5v400q0 83 -58.5 141.5t-141.5 58.5zM300 -2q-21 0 -36.5 15.5t-15.5 36.5t15.5 36.5t36.5 15.5t36.5 -15.5t15.5 -36.5t-15.5 -36.5t-36.5 -15.5z
M500 150h-400v400q0 41 29.5 70.5t70.5 29.5h200q41 0 70.5 -29.5t29.5 -70.5v-400z" />
    <glyph glyph-name="period" unicode="." horiz-adv-x="500" 
d="M250 650q62 0 106 -44t44 -106t-43 -105q-56 -55 -107 -136q-52 83 -106 135q-44 44 -44 106t44 106t106 44zM249.5 750q-103.5 0 -176.5 -73t-73 -177t73 -177q0 1 18.5 -19t44.5 -55.5t52 -80t44 -103.5t18 -115q0 56 18 115t44 103.5t52 80.5t45 55l18 19
q73 73 73 177t-73.5 177t-177 73zM200 500q0 21 14.5 35.5t35.5 14.5t35.5 -14.5t14.5 -35.5t-14.5 -35.5t-35.5 -14.5t-35.5 14.5t-14.5 35.5z" />
    <glyph glyph-name="zero" unicode="0" horiz-adv-x="914" 
d="M0 693q0 24 16.5 40.5t40.5 16.5t40.5 -16.5t16.5 -40.5t-16.5 -40.5t-40.5 -16.5t-40.5 16.5t-16.5 40.5zM0 464.5q0 23.5 16.5 40t40.5 16.5t40.5 -16.5t16.5 -40t-16.5 -40.5t-40.5 -17t-40.5 17t-16.5 40.5zM0 235.5q0 23.5 16.5 40.5t40.5 17t40.5 -17t16.5 -40.5
t-16.5 -40t-40.5 -16.5t-40.5 16.5t-16.5 40zM0 7q0 24 16.5 40.5t40.5 16.5t40.5 -16.5t16.5 -40.5t-16.5 -40.5t-40.5 -16.5t-40.5 16.5t-16.5 40.5zM229 750h685v-114h-685v114zM229 521h685v-114h-685v114zM229 293h685v-114h-685v114zM229 64h685v-114h-685v114z" />
    <glyph glyph-name="four" unicode="4" horiz-adv-x="914" 
d="M0 693q0 24 16.5 40.5t40.5 16.5t40.5 -16.5t16.5 -40.5t-16.5 -40.5t-40.5 -16.5t-40.5 16.5t-16.5 40.5zM229 750h685v-114h-685v114zM229 464.5q0 23.5 16.5 40t40 16.5t40.5 -16.5t17 -40t-17 -40.5t-40.5 -17t-40 17t-16.5 40.5zM457 521h457v-114h-457v114zM229 7
q0 24 16.5 40.5t40 16.5t40.5 -16.5t17 -40.5t-17 -40.5t-40.5 -16.5t-40 16.5t-16.5 40.5zM457 64h457v-114h-457v114zM457 235.5q0 23.5 17 40.5t40.5 17t40 -17t16.5 -40.5t-16.5 -40t-40 -16.5t-40.5 16.5t-17 40zM686 293h228v-114h-228v114z" />
    <glyph glyph-name="six" unicode="6" horiz-adv-x="800" 
d="M400 650q-45 0 -91.5 -16.5t-84.5 -42.5t-74 -57.5t-62.5 -63t-46.5 -58t-30.5 -42.5l-10.5 -16q4 -6 11 -17t30 -42.5t47 -60.5t61.5 -64t74.5 -60t84 -42.5t92 -17.5t91.5 17t84.5 43.5t74 59t62.5 64.5t46.5 59.5t30.5 43.5t10.5 17l-11 16.5t-30 41.5t-47 59
t-61.5 62t-74.5 58.5t-84 41.5t-92 17zM400 150q-83 0 -141.5 58.5t-58.5 141.5t58.5 141.5t141.5 58.5t141.5 -58.5t58.5 -141.5t-58.5 -141.5t-141.5 -58.5zM300 350q0 41 29.5 70.5t70.5 29.5t70.5 -29.5t29.5 -70.5t-29.5 -70.5t-70.5 -29.5t-70.5 29.5t-29.5 70.5z" />
    <glyph glyph-name="seven" unicode="7" horiz-adv-x="700" 
d="M100 750q-41 0 -70.5 -29.5t-29.5 -70.5v-600q0 -41 29.5 -70.5t70.5 -29.5h600v800h-600zM600 50h-400v600h100v-200l100 100l100 -100v200h100v-600z" />
    <glyph glyph-name="nine" unicode="9" horiz-adv-x="500" 
d="M427 677q-73 73 -177 73t-177 -73t-73 -177t73 -177q1 0 18.5 -19t44 -55t52 -80.5t44 -103.5t18.5 -115q0 56 18 115t44 103.5t52 80.5t45 55l18 19q73 73 73 177t-73 177zM250 400q-41 0 -70.5 29.5t-29.5 70.5t29.5 70.5t70.5 29.5t70.5 -29.5t29.5 -70.5t-29.5 -70.5
t-70.5 -29.5z" />
    <glyph glyph-name="colon" unicode=":" horiz-adv-x="600" 
d="M300 350q-124 0 -212 -88t-88 -212q0 -41 29.5 -70.5t70.5 -29.5h400q41 0 70.5 29.5t29.5 70.5q0 124 -88 212t-212 88zM150 600q0 62 44 106t106 44t106 -44t44 -106t-44 -106t-106 -44t-106 44t-44 106z" />
    <glyph glyph-name="less" unicode="&#x3c;" horiz-adv-x="800" 
d="M800 650h-100v100h-600q-41 0 -70.5 -29.5t-29.5 -70.5v-600q0 -41 29.5 -70.5t70.5 -29.5h600v500h100l-100 100zM600 50h-400v600h400v-600zM300 550h200v-100h-200v100z" />
    <glyph glyph-name="equal" unicode="=" horiz-adv-x="800" 
d="M451 401h144q-13 53 -52 92t-92 52v-144zM451 299v-144q53 13 92 52t52 92h-144zM349 401v144q-53 -13 -92 -52t-52 -92h144zM349 299h-144q13 -53 52 -92t92 -52v144zM451 649q95 -16 163 -84.5t85 -163.5h101q-17 137 -114.5 234.5t-234.5 114.5v-101zM101 401
q16 95 84.5 163.5t163.5 84.5v101q-137 -17 -234.5 -114.5t-114.5 -234.5h101zM349 51q-95 16 -163.5 84.5t-84.5 163.5h-101q17 -137 114.5 -234.5t234.5 -114.5v101zM699 299q-16 -95 -84.5 -163.5t-163.5 -84.5v-101q137 17 234.5 114.5t114.5 234.5h-101z" />
    <glyph glyph-name="G" unicode="G" horiz-adv-x="800" 
d="M300 751q136 0 233 -111q67 -85 67 -187v-7q0 -132 -112 -230q-87 -66 -188 -66q-135 0 -232 110q-68 86 -68 186v7q0 135 112 232q86 66 188 66zM75 450q0 -104 86 -176q63 -48 136 -48h6q104 0 177 90q45 62 45 135q0 110 -95 183q-61 41 -123 41h-14q-90 0 -163 -77
q-55 -66 -55 -148zM299 626l1 -2v-47q0 -2 -2 -2h-3q-66 0 -108 -70q-10 -24 -13 -55h-47q-2 0 -2 2v1q0 92 88 150q44 23 86 23zM593 261h2q193 -191 195 -197q10 -20 10 -35v-4q0 -51 -55 -72l-20 -3q-38 0 -75 45q-84 83 -161 161q69 48 104 105z" />
    <glyph glyph-name="H" unicode="H" horiz-adv-x="400" 
d="M200 250q-48 0 -100 18v-318l100 100l100 -100v318q-52 -18 -100 -18zM0 550q0 83 58.5 141.5t141.5 58.5t141.5 -58.5t58.5 -141.5t-58.5 -141.5t-141.5 -58.5t-141.5 58.5t-58.5 141.5z" />
    <glyph glyph-name="K" unicode="K" horiz-adv-x="800" 
d="M800 -50h-800v700h100v-600h600v600h100v-700zM150 450h100v-100h-100v100zM350 450h100v-100h-100v100zM550 450h100v-100h-100v100zM150 250h100v-100h-100v100zM350 250h100v-100h-100v100zM550 150v100h100zM200 600v100q0 21 14.5 35.5t35.5 14.5t35.5 -14.5
t14.5 -35.5v-100q0 -21 -14.5 -35.5t-35.5 -14.5t-35.5 14.5t-14.5 35.5zM500 600v100q0 21 14.5 35.5t35.5 14.5t35.5 -14.5t14.5 -35.5v-100q0 -21 -14.5 -35.5t-35.5 -14.5t-35.5 14.5t-14.5 35.5z" />
    <glyph glyph-name="L" unicode="L" horiz-adv-x="800" 
d="M650 650v-51q0 -42 -29.5 -71t-70.5 -29t-70.5 29t-29.5 71v51h-100v-51q0 -42 -29.5 -71t-70.5 -29t-70.5 29t-29.5 71v51h-150v-700h800v700h-150zM250 50h-100v100h100v-100zM250 250h-100v100h100v-100zM450 50h-100v100h100v-100zM450 250h-100v100h100v-100z
M550 50v100h100zM650 250h-100v100h100v-100zM200 600v100q0 21 14.5 35.5t35.5 14.5t35.5 -14.5t14.5 -35.5v-100q0 -21 -14.5 -35.5t-35.5 -14.5t-35.5 14.5t-14.5 35.5zM500 600v100q0 21 14.5 35.5t35.5 14.5t35.5 -14.5t14.5 -35.5v-100q0 -21 -14.5 -35.5t-35.5 -14.5
t-35.5 14.5t-14.5 35.5z" />
    <glyph glyph-name="N" unicode="N" horiz-adv-x="800" 
d="M400 364l400 188v98h-800v-98zM400 253l-400 189v-392h800v391z" />
    <glyph glyph-name="Y" unicode="Y" horiz-adv-x="800" 
d="M150 450l-150 -150l300 -300l500 500l-150 150l-350 -350z" />
    <glyph glyph-name="Z" unicode="Z" horiz-adv-x="800" 
d="M400 750q-166 0 -283 -117t-117 -283t117 -283t283 -117t283 117t117 283t-117 283t-283 117zM338 165l-184 185l71 70l113 -113l240 240l71 -70z" />
    <glyph glyph-name="bracketleft" unicode="[" horiz-adv-x="800" 
d="M750 140l-210 210l210 210l-140 140l-210 -210l-210 210l-140 -140l210 -210l-210 -210l140 -140l210 210l210 -210z" />
    <glyph glyph-name="asciicircum" unicode="^" horiz-adv-x="600" 
d="M350 750h-350v-800h600v550zM298 450v200l200 -200h-200z" />
    <glyph glyph-name="underscore" unicode="_" horiz-adv-x="600" 
d="M350 750h-350v-800h600v550zM100 50v600h200v-200h200v-400h-400z" />
    <glyph glyph-name="b" unicode="b" horiz-adv-x="800" 
d="M800 650h-100h-100q0 41 -29.5 70.5t-70.5 29.5h-200q-41 0 -70.5 -29.5t-29.5 -70.5h-100h-100v-100h100v-450q0 -62 44 -106t106 -44h300q62 0 106 44t44 106v450h100v100zM600 100q0 -21 -14.5 -35.5t-35.5 -14.5h-300q-21 0 -35.5 14.5t-14.5 35.5v450h400v-450z
M250 200q0 21 14.5 35.5t35.5 14.5t35.5 -14.5t14.5 -35.5t-14.5 -35.5t-35.5 -14.5t-35.5 14.5t-14.5 35.5zM250 400q0 21 14.5 35.5t35.5 14.5t35.5 -14.5t14.5 -35.5t-14.5 -35.5t-35.5 -14.5t-35.5 14.5t-14.5 35.5zM450 200q0 21 14.5 35.5t35.5 14.5t35.5 -14.5
t14.5 -35.5t-14.5 -35.5t-35.5 -14.5t-35.5 14.5t-14.5 35.5zM450 400q0 21 14.5 35.5t35.5 14.5t35.5 -14.5t14.5 -35.5t-14.5 -35.5t-35.5 -14.5t-35.5 14.5t-14.5 35.5z" />
    <glyph glyph-name="c" unicode="c" horiz-adv-x="800" 
d="M700 650h-100q0 41 -29.5 70.5t-70.5 29.5h-200q-41 0 -70.5 -29.5t-29.5 -70.5h-100h-100v-100h100v-450q0 -62 44 -106t106 -44h300q62 0 106 44t44 106v450h100v100h-100zM300 150q-21 0 -35.5 14.5t-14.5 35.5t14.5 35.5t35.5 14.5t35.5 -14.5t14.5 -35.5
t-14.5 -35.5t-35.5 -14.5zM300 350q-21 0 -35.5 14.5t-14.5 35.5t14.5 35.5t35.5 14.5t35.5 -14.5t14.5 -35.5t-14.5 -35.5t-35.5 -14.5zM500 150q-21 0 -35.5 14.5t-14.5 35.5t14.5 35.5t35.5 14.5t35.5 -14.5t14.5 -35.5t-14.5 -35.5t-35.5 -14.5zM500 350
q-21 0 -35.5 14.5t-14.5 35.5t14.5 35.5t35.5 14.5t35.5 -14.5t14.5 -35.5t-14.5 -35.5t-35.5 -14.5z" />
    <glyph glyph-name="o" unicode="o" horiz-adv-x="600" 
d="M300 350q41 0 70.5 29.5t29.5 70.5v200q0 41 -29.5 70.5t-70.5 29.5t-70.5 -29.5t-29.5 -70.5v-200q0 -41 29.5 -70.5t70.5 -29.5zM400 50h-50v105q107 18 178.5 101.5t71.5 193.5v48q0 21 -14.5 35.5t-35.5 14.5t-35.5 -14.5t-14.5 -35.5v-48q0 -83 -58.5 -141.5
t-141.5 -58.5t-141.5 58.5t-58.5 141.5v48q0 21 -14.5 35.5t-35.5 14.5t-35.5 -14.5t-14.5 -35.5v-48q0 -110 71.5 -193.5t178.5 -101.5v-105h-50q-41 0 -70.5 -29.5t-29.5 -70.5h400q0 41 -29.5 70.5t-70.5 29.5z" />
    <glyph glyph-name="q" unicode="q" horiz-adv-x="800" 
d="M400 600q-4 4 -12.5 11t-42 24t-75 30t-114 24t-156.5 11v-600q85 0 157.5 -10.5t115 -25t73 -29t42.5 -25.5l12 -10q4 4 12.5 11t41.5 24t74 30t114 24t158 11v600q-84 0 -156 -10.5t-115 -25t-74 -29t-43 -25.5zM100 600q154 -13 250 -64v-403q-96 51 -250 64v403z
M700 197q-154 -13 -250 -64v403q96 51 250 64v-403z" />
    <glyph glyph-name="s" unicode="s" horiz-adv-x="800" 
d="M404 801q43 0 117 -87q277 -270 280 -289v-55q-27 -48 -66 -48h-15l-15 3v-280q-8 -45 -36 -45h-130q-28 0 -36 45v175h-199v-163q0 -43 -30 -57h-135q-40 0 -40 66v259l-15 -3h-6q-64 0 -78 72v7q0 41 123 150q238 244 250 244q26 6 31 6zM379 723q0 -12 25 -30
q18 11 24 33q0 16 -24 24q-20 0 -25 -27zM54 407v-10q0 -21 21 -21h3q17 0 88 79q115 112 198 198q-27 28 -27 37q-136 -133 -283 -283zM470 690q0 -7 -27 -37q272 -277 280 -277h15q15 8 15 25q0 13 -148 153q0 4 -135 136zM154 364v-316h96v157q0 69 66 69h178
q60 0 60 -51v-175h99v316q-145 150 -249 250q-150 -145 -250 -250zM407 524q63 0 93 -72q0 -13 6 -27q-19 -103 -102 -103q-76 0 -100 85q0 2 -3 18q0 65 75 96zM355 425q0 -42 42 -49h13q33 0 42 49q0 39 -51 48q-37 0 -46 -48z" />
    <glyph glyph-name="u" unicode="u" horiz-adv-x="800" 
d="M400 650q124 0 212 -88t88 -212t-88 -212t-212 -88t-212 88t-88 212t88 212t212 88zM400 750q-166 0 -283 -117t-117 -283t117 -283t283 -117t283 117t117 283t-117 283t-283 117zM536 286l-86 85v179h-101v-200q0 -22 18 -37l98 -98z" />
    <glyph glyph-name="v" unicode="v" horiz-adv-x="800" 
d="M741.5 691.5q-58.5 58.5 -141.5 58.5t-141 -59l-458 -457l-1 -284h283l458 459q59 58 59 141t-58.5 141.5zM241 50h-41v100h-99v42l428 429l142 -142z" />
    <glyph glyph-name="x" unicode="x" horiz-adv-x="800" 
d="M750 300h-50v100q0 124 -88 212t-212 88t-212 -88t-88 -212v-100h-50q-21 0 -35.5 -14.5t-14.5 -35.5v-200q0 -21 14.5 -35.5t35.5 -14.5h150v400q0 83 58.5 141.5t141.5 58.5t141.5 -58.5t58.5 -141.5v-400h150q21 0 35.5 14.5t14.5 35.5v200q0 21 -14.5 35.5
t-35.5 14.5z" />
    <glyph glyph-name="y" unicode="y" horiz-adv-x="800" 
d="M200 150q-83 0 -141.5 58.5t-58.5 141.5t58.5 141.5t141.5 58.5v-400zM300 550l200 100v-600l-200 100v400zM600 150v100q12 0 25 3q33 9 54 36t21 61t-21 61t-54 36q-13 3 -25 3v100q24 0 49 -6q67 -17 109 -71t42 -123t-42 -123t-109 -71q-25 -6 -49 -6z" />
    <glyph glyph-name="z" unicode="z" horiz-adv-x="800" 
d="M400 650v100h-400v-700q0 -41 29.5 -70.5t70.5 -29.5h600q41 0 70.5 29.5t29.5 70.5v600h-400zM700 350v-300h-600v300h600zM700 450h-600v200h200v-100h400v-100z" />
    <glyph glyph-name="braceleft" unicode="{" horiz-adv-x="800" 
d="M741.5 691.5q-58.5 58.5 -141.5 58.5t-141 -59l-458 -457l-1 -284h283l458 459q59 58 59 141t-58.5 141.5zM241 50h-1q30 29 30 71t-30 71q-28 28 -67 29t-68 -25l423 424l142 -142z" />
    <glyph glyph-name="uniE001" unicode="&#xe001;" horiz-adv-x="800" 
d="M741.5 691.5q-58.5 58.5 -141.5 58.5t-141 -59l-458 -457l-1 -284h283l458 459q59 58 59 141t-58.5 141.5zM240 50h-141v142q29 29 70.5 29t71 -29t29.5 -71t-30 -71zM669 479l-142 142q30 29 71.5 29t70.5 -29.5t29 -70.5t-29 -71z" />
    <glyph glyph-name="uniE002" unicode="&#xe002;" horiz-adv-x="800" 
d="M800 0q0 -21 -14.5 -35.5t-35.5 -14.5h-700q-21 0 -35.5 14.5t-14.5 35.5v450h800v-450zM300 650v100h-300v-200h800v100h-500z" />
    <glyph glyph-name="uniE003" unicode="&#xe003;" horiz-adv-x="800" 
d="M200 150q-83 0 -141.5 58.5t-58.5 141.5t58.5 141.5t141.5 58.5v-400zM300 550l200 100v-600l-200 100v400zM800 300h-200v100h200v-100z" />
    <glyph glyph-name="uniE004" unicode="&#xe004;" horiz-adv-x="600" 
d="M0 750l600 -400l-600 -400v800z" />
    <glyph glyph-name="uniE008" unicode="&#xe008;" horiz-adv-x="799" 
d="M770.5 720.5q-29.5 29.5 -70.5 29.5t-71 -29l-378 -379q53 -13 91 -51q36 -36 51 -90l378 378q29 30 29 71t-29.5 70.5zM271 79q29 29 29 70.5t-29 71t-70.5 29.5t-71.5 -29l-129 -271z" />
    <glyph glyph-name="uniE009" unicode="&#xe009;" horiz-adv-x="799" 
d="M770.5 720.5q-29.5 29.5 -70.5 29.5t-71 -29l-285 -285q50 -18 87 -55t55 -87l285 285q29 30 29 71t-29.5 70.5zM400 217q0 55 -39 94t-94.5 39t-94.5 -39t-39 -94q0 -73 -36 -134.5t-97 -96.5v-1q62 -35 133 -35q111 0 189 78t78 189z" />
    <glyph glyph-name="uniE01C" unicode="&#xe01c;" horiz-adv-x="799" 
d="M741 408q59 58 59 141t-58.5 141.5t-141.5 58.5t-141 -59l-15 -14l-74 74l-71 -71l75 -74l-374 -374v-181l98 -100h186l372 373l72 -72l71 70l-72 72zM258 66q2 62 -41 105q-38 38 -96 40l323 323l142 -141z" />
    <glyph glyph-name="uniE01D" unicode="&#xe01d;" horiz-adv-x="799" 
d="M300 150q0 41 -29.5 70.5t-70.5 29.5t-70.5 -29.5t-29.5 -70.5q0 -55 -27 -101t-73 -72q46 -27 100 -27q83 0 141.5 58.5t58.5 141.5zM770.5 720.5q-29.5 29.5 -70.5 29.5t-71 -29l-378 -378q52 -14 90 -52t52 -90l378 378q29 30 29 71t-29.5 70.5z" />
    <glyph glyph-name="uniE02C" unicode="&#xe02c;" horiz-adv-x="800" 
d="M0 250l400 500l400 -500h-800zM0 150h799v-200h-799v200z" />
    <glyph glyph-name="uniE030" unicode="&#xe030;" horiz-adv-x="800" 
d="M800 450h-300v300h-200v-300h-300v-200h300v-300h200v300h300v200z" />
    <glyph glyph-name="uniE032" unicode="&#xe032;" horiz-adv-x="800" 
d="M400 750q-166 0 -283 -117t-117 -283t117 -283t283 -117t283 117t117 283t-117 283t-283 117zM400 650q95 0 173 -56l-417 -417q-56 78 -56 173q0 124 88 212t212 88zM400 50q-95 0 -173 56l417 417q56 -78 56 -173q0 -124 -88 -212t-212 -88z" />
    <glyph glyph-name="uniE03C" unicode="&#xe03c;" horiz-adv-x="700" 
d="M597 598l-70 -71q73 -73 73 -177q0 -103 -73.5 -176.5t-176.5 -73.5v50l-100 -100l100 -100v50q145 0 247.5 102.5t102.5 247.5t-103 248zM450 650l-100 100v-50q-145 0 -247.5 -102.5t-102.5 -247.5t103 -248l70 71q-73 73 -73 177q0 103 73.5 176.5t176.5 73.5v-50z
" />
    <glyph glyph-name="uniE044" unicode="&#xe044;" horiz-adv-x="800" 
d="M800 301v100l-120 50q-5 16 -11 27l49 120l-71 71l-119 -49q-12 6 -28 11l-51 119h-100l-49 -118q-17 -6 -29 -12l-119 48l-71 -71l49 -118q-6 -12 -12 -29l-118 -51v-100l118 -49q6 -17 12 -29l-48 -119l71 -71l118 49q12 -6 29 -12l51 -118h100l49 119q17 6 28 11
l120 -48l71 71l-49 119q4 11 10 28zM399 200q-62 0 -106 44t-44 106t44 106t106 44t106 -44t44 -106t-44 -106t-106 -44z" />
    <glyph glyph-name="uniE049" unicode="&#xe049;" horiz-adv-x="800" 
d="M600 300q0 -83 -58.5 -141.5t-141.5 -58.5t-141.5 58.5t-58.5 141.5t58.5 141.5t141.5 58.5l59 -1l-29 -29l71 -70l150 150l-150 150l-71 -71l29 -29h-59q-124 0 -212 -88t-88 -212t88 -212t212 -88t212 88t88 212h-100z" />
    <glyph glyph-name="uniE04A" unicode="&#xe04a;" horiz-adv-x="800" 
d="M600 300q0 -83 -58.5 -141.5t-141.5 -58.5t-141.5 58.5t-58.5 141.5t58.5 141.5t141.5 58.5h100l1 -100l150 150l-150 150v-100h-101q-124 0 -212 -88t-88 -212t88 -212t212 -88t212 88t88 212h-100z" />
    <glyph glyph-name="uniE057" unicode="&#xe057;" 
d="M5 802h655q5 -1 5 -5v-345q0 -4 -41 -42h-3v348h-580v-817h580v214q7 13 41 44l3 -5v-289q0 -5 -5 -5h-655q-5 0 -5 5v892q1 5 5 5zM193 696h274q5 0 5 -5v-36q0 -5 -5 -5h-274q-5 0 -5 5v36q1 5 5 5zM108 586h431q5 -1 5 -6v-15q0 -5 -5 -5h-431q-5 0 -5 5v15q1 6 5 6z
M108 513h431q5 0 5 -5v-15q0 -5 -5 -5h-431q-5 0 -5 5v15q1 5 5 5zM722 477h2q5 -1 75 -77v-5q0 -4 -34 -34h-2q-3 0 -77 78v2q0 4 36 36zM108 439h431q5 -1 5 -5v-16q0 -5 -5 -5h-431q-5 0 -5 5v16q1 5 5 5zM675 431h3q3 0 77 -77v-3q-176 -182 -180 -183q-78 76 -78 83
t178 180zM108 364h431q5 -1 5 -5v-16q0 -5 -5 -5h-431q-5 0 -5 5v16q1 5 5 5zM482 235q4 -1 80 -80q0 -13 -111 -31v3q18 108 31 108zM338 129q32 0 38 -23q-10 -29 -10 -33q2 -11 44 -13v2q-8 20 -8 29q0 16 23 20h8q46 -9 46 -46q-2 -5 -2 -8q4 0 8 -8q-9 -15 -13 -15
q-9 5 -16 5q-47 -36 -56 -36q-11 4 -11 8v13l8 13q-54 8 -54 36q0 6 8 31q-2 0 -16 2q-10 -2 -10 -15q7 -28 26 -62q-11 -10 -21 -10q-21 39 -28 69q0 41 36 41zM425 88q7 -24 16 -28q12 7 13 10v3q-9 15 -24 15h-5zM503 26q0 -2 2 -2q0 -23 -26 -23q-13 0 -49 -29
q-10 4 -15 13q31 41 88 41zM521 24h13q5 -1 5 -5v-13q0 -5 -5 -5h-13q-6 0 -6 5v13q1 5 6 5z" />
    <glyph glyph-name="uniE050" unicode="&#xe050;" 
d="M400 737q101 0 140 -85q2 -8 2 -12h210q36 0 47 -41v-551q0 -33 -36 -46q-11 -2 -17 -2h-693q-36 0 -50 31q-3 6 -3 17v548q0 29 36 42q2 2 11 2h210q0 37 58 76q43 21 85 21zM290 640h219v1q-9 26 -39 46q-36 17 -72 17q-88 -6 -108 -64zM33 593v-273q0 -16 18 -16h269
v2q0 41 48 47h63q48 -6 48 -47v-2h269q18 0 18 16v273q-2 14 -14 14h-705q-14 -2 -14 -14zM353 306v-39q3 -6 9 -10h75q6 4 9 10v39q0 14 -17 14h-59q-17 0 -17 -14zM33 275v-227q0 -15 18 -15h697q18 0 18 15v227q-12 -3 -22 -3h-265v-5q0 -29 -39 -42h-78q-29 0 -42 39v8
h-265q-10 0 -22 3z" />
    <glyph glyph-name="uniE051" unicode="&#xe051;" 
d="M17 536h179q17 -3 17 -17q0 -10 -51 -43v-8q0 -16 136 -340h17q0 25 76 144q-87 230 -136 230q-25 0 -25 17q2 17 17 17h161q17 -3 17 -17q0 -26 -34 -26v-8q43 -113 43 -119h17q0 8 42 119v8q-51 9 -51 26q3 17 17 17h145q17 -3 17 -17q-96 -54 -145 -196q0 -8 -8 -8
q77 -168 77 -179h8l136 340q-51 23 -51 34v9q3 17 17 17h128q17 -3 17 -17v-9q-51 -25 -128 -221q-92 -236 -136 -289h-17q-17 0 -94 213h-17q-99 -213 -119 -213h-17q-31 35 -187 417q-34 48 -85 93v9q3 17 17 17z" />
    <glyph glyph-name="uniE052" unicode="&#xe052;" 
d="M45 555h709q47 0 47 -33v-486q0 -27 -21 -36h-747q-33 0 -33 27v498q0 30 45 30zM59 492v-433h683v433h-683zM205 451h29q42 -47 42 -53h3v41q0 6 -9 6v6h104q6 -1 6 -6v-24h-6q0 21 -21 21h-15v-36h3q12 2 12 21h6v-47h-6q0 18 -9 18h-6v-36h15q23 0 27 21h6v-12
q0 -16 -9 -18h-74v6q9 0 9 6v74q0 6 -6 6h-9q-5 0 -9 -9v-77q0 -6 -6 -6q-56 71 -59 71v-56q0 -9 11 -9v-6h-29v6q9 0 9 6v71l-9 12v3zM395 451h32l-3 -12l18 -50h3q0 7 12 32q-9 24 -18 24v6h45v-6q-4 0 -9 -3q17 -43 17 -50h3q15 41 15 50v3h-6v6h18q6 -1 6 -6
q-7 -3 -41 -92h-3q-9 15 -21 53l-30 -53q-38 88 -44 95zM558 451h9q8 0 17 -6q6 3 9 3v-27h-6q0 19 -26 24q-12 -4 -12 -9v-6q0 -3 47 -32l3 -15q0 -19 -20 -30h-6l-36 3q0 -3 -3 -3l-3 6v27h6q0 -20 30 -27h3q4 0 11 12v3q0 3 -47 35l-3 15q4 27 27 27zM131 332h539
q6 -1 6 -6v-14q0 -6 -6 -6h-539q-6 0 -6 6v14q1 6 6 6zM754 258q5 -13 11 -15h3q16 0 18 9v12q-1 6 -15 12q-9 0 -17 -18zM243 273h140q6 -1 6 -6v-15q0 -6 -6 -6h-140q-6 0 -6 6v15q1 6 6 6zM418 273h252q6 -1 6 -6v-15q0 -6 -6 -6h-252q-6 0 -6 6v15q1 6 6 6zM169 267h9
q31 -83 42 -83v-6h-42v6q9 0 9 3q-6 10 -6 15h-33l-3 -15v-3h9v-6h-26v3q15 20 41 86zM163 234q-9 -21 -9 -23h21v3q-9 14 -9 20h-3zM243 214h140q6 -1 6 -6v-18q0 -6 -6 -6h-140q-6 0 -6 6v18q1 6 6 6zM418 214h252q6 -1 6 -6v-18q0 -6 -6 -6h-252q-6 0 -6 6v18q1 6 6 6z
M131 154h252q6 -1 6 -6v-17q0 -6 -6 -6h-252q-6 0 -6 6v17q1 6 6 6zM418 154h252q6 -1 6 -6v-17q0 -6 -6 -6h-252q-6 0 -6 6v17q1 6 6 6z" />
    <glyph glyph-name="uniE053" unicode="&#xe053;" 
d="M99 795h554q82 0 100 -76v-365h-7q-30 22 -30 27v305q0 73 -70 73h-533q-73 0 -73 -57v-699q0 -63 53 -63h567q10 0 23 -37l-7 -3h-570q-106 0 -106 109v680q0 106 99 106zM288 689q46 0 60 -63q0 -31 -33 -66q83 -30 83 -86q-23 -27 -116 -27q-110 0 -110 33q0 49 80 80
v6q-19 0 -30 53q0 70 66 70zM278 550q0 -13 -23 -73l30 -27l27 30l-24 66q4 0 4 4h-14zM196 407h354v-6q-8 0 -73 -30h-295q-4 0 -10 10v13q6 13 24 13zM603 371q121 0 163 -123q6 -13 6 -36v-4q0 -126 -126 -165q-12 -7 -36 -7q-119 0 -166 123l-6 49q0 109 129 159
q23 4 36 4zM471 182q18 -64 66 -96q36 -17 63 -17h20q50 0 103 63q20 44 20 86q-14 61 -60 100q-48 20 -60 20h-30q-60 0 -106 -70q-16 -25 -16 -86zM186 331h255v-3q-18 -33 -23 -33h-232q-6 0 -14 13v10q0 5 14 13zM182 255h222v-7q0 -24 -9 -26h-213q-4 0 -10 10v13
q0 5 10 10zM381 182h14q8 0 13 -33l-7 -4h-20q-17 0 -20 10v17q4 10 20 10zM733 69q53 -87 53 -96q-67 -40 -73 -40q-47 78 -53 96q60 40 73 40zM428 33h56q71 -30 83 -30v-7h-119q-26 0 -30 13v14q0 4 10 10zM792 -37q7 -11 7 -20v-7q0 -27 -36 -36h-10q-26 0 -30 23z" />
    <glyph glyph-name="uniE054" unicode="&#xe054;" 
d="M172 428h7q52 0 66 -69v-4q0 -61 -73 -71q-62 0 -71 73v5q0 44 55 64q3 2 16 2zM350 391h433q12 0 18 -11v-334q-4 -9 -16 -9h-437q-18 0 -18 23v18q0 3 32 23q4 -1 4 -5v-25h403v286h-405v-119q0 -3 -7 -7h-5q0 10 -22 34v106q3 20 20 20zM586 325h2q3 0 7 -7v-7
l-158 -103l2 -16q0 -24 -59 -55q-50 -39 -64 -39q-32 0 -32 42v43h-19v-178q0 -5 -4 -5h-176q-5 0 -5 5v178h-16v-151q0 -32 -9 -32h-46q-3 0 -9 9v190q0 38 50 66q49 10 60 10h27q18 -18 35 -53q6 3 29 46l7 7h44q69 -6 87 -55q9 -26 9 -30h2q46 34 60 34q16 -3 16 -7z" />
    <glyph glyph-name="uniE055" unicode="&#xe055;" 
d="M389 800h22q92 0 180 -80q194 -149 209 -164v-478q0 -51 -59 -75q-6 -3 -18 -3h-646q-50 0 -74 59q-3 11 -3 19v474q0 10 53 46q225 180 239 180q50 22 97 22zM44 548q109 -103 122 -112l-32 114q0 18 57 25q0 2 42 9v66q0 14 20 17h294q20 -1 20 -20v-63q96 -17 96 -25
q0 -2 3 -9l-32 -114q13 9 122 112q-248 197 -259 197q-48 22 -97 22q-87 0 -158 -64q-194 -150 -198 -155zM267 633v-291q0 -2 53 -50q37 27 60 49v29h-61q-3 0 -3 3v24q0 3 3 3h61v22h-61q-3 0 -3 3v23q0 4 3 4h50l-58 84l3 2h30l56 -79q45 78 47 79h31q3 -1 3 -4
q-40 -66 -48 -82h50q3 -1 3 -4v-23q0 -3 -3 -3h-63v-22h63q3 0 3 -3v-24q0 -3 -3 -3h-63v-29q58 -49 60 -49q53 48 53 50v291h-266zM173 538q40 -148 44 -152q3 0 16 -13v177q-53 -12 -60 -12zM567 550v-177q24 17 24 36q4 12 36 129q-5 0 -60 12zM34 509v-428q1 -20 7 -20
l253 209q-233 216 -260 239zM506 269l255 -208q5 8 5 20v428q-241 -220 -260 -240zM66 38v-2q15 -3 31 -3h606q16 0 31 3v2q-35 30 -334 275q-302 -247 -334 -275z" />
    <glyph glyph-name="uniE056" unicode="&#xe056;" 
d="M139 891h56q6 -1 6 -7v-33h304v33q1 7 7 7h53q6 -1 6 -7v-33h122q7 -1 7 -7v-937q0 -7 -7 -7h-686q-7 0 -7 7v937q1 7 7 7h125v33q1 7 7 7zM40 811v-871h627v871h-96v-46q0 -6 -6 -6h-53q-7 0 -7 6v46h-304v-46q0 -6 -6 -6h-56q-7 0 -7 6v46h-92zM370 742q1 -12 49 -36
q13 -17 17 -40q-2 -26 -7 -26l4 -7v-10q-23 -89 -73 -89q-42 0 -66 96q1 6 6 6l-3 7v36q0 37 73 63zM314 547h6q12 -39 47 -39h3q33 31 33 39h6q8 -7 73 -36q36 -39 36 -135q-39 -33 -148 -33q0 -4 -13 -4q-149 16 -149 46q9 139 63 139q25 8 43 23zM135 273h456q7 -1 7 -6
v-14q0 -6 -7 -6h-456q-6 0 -6 6v14q1 6 6 6zM135 197h420q6 -1 6 -6v-14q0 -6 -6 -6h-420q-6 0 -6 6v14q1 6 6 6zM135 125h383q7 -1 7 -7v-13q0 -7 -7 -7h-383q-6 0 -6 7v13q1 7 6 7zM139 52h346q7 -1 7 -7v-10q0 -6 -7 -6h-346q-7 0 -7 6v10q1 7 7 7z" />
    <glyph glyph-name="uniE058" unicode="&#xe058;" 
d="M221 789h15q10 -2 10 -10v-5q0 -8 -85 -20q-136 -69 -136 -206l-10 -5h-5q-10 0 -10 10q0 166 176 231q27 5 45 5zM206 724h15q10 -2 10 -10v-5q0 -9 -65 -21q-76 -45 -76 -125l-10 -5h-5q-10 0 -10 10q0 103 111 151zM427 724q40 0 106 -201q100 -228 130 -322v-10
q0 -42 -150 -85q-97 -51 -136 -51q-30 0 -101 201q-130 300 -130 337q0 31 206 100q42 26 75 31zM166 588q196 -505 211 -513h5l126 46v5l-26 -5h-5q-7 0 -15 15v10q0 12 20 15v5h-5l-110 -45q-176 415 -176 432q40 29 251 105q176 -410 176 -432q-20 -15 -105 -45v-5
q30 0 30 -10v-25q-18 -5 -20 -5v-5h5q90 33 115 55v10q-194 498 -211 502q-5 0 -5 6q-253 -97 -261 -116zM327 648l5 -10l-51 -20v15zM206 543q152 -378 171 -402q224 83 226 95q-146 367 -171 407q-225 -88 -226 -100zM764 322q30 -14 35 -116q0 -134 -146 -206l-5 10v10
q126 78 126 196l-20 101zM709 281h5q15 0 25 -75q0 -91 -101 -141l-10 15q81 55 81 116v25q0 7 -11 55zM487 171v-5h5q10 5 16 5v5h-5q-10 -5 -16 -5zM477 141v-10h5l51 20v5q0 10 -10 10q-46 -16 -46 -25z" />
    <glyph glyph-name="uniE059" unicode="&#xe059;" 
d="M27 799q20 0 24 -25v-75h46q29 0 29 -29q-4 -22 -30 -22h-45v-74q21 0 25 -27q0 -20 -25 -24v-73h40q35 0 35 -26v-1q0 -26 -35 -26h-40v-73q25 -4 25 -24q-4 -27 -25 -27v-74h45q30 0 30 -25q0 -26 -29 -26h-46v-99h720q20 0 28 -15v-21q-5 -9 -13 -13h-738
q-39 0 -47 43q-1 2 -1 12v711q0 33 27 33zM579 549h123q24 -3 24 -24v-123q0 -29 -29 -29q-22 4 -22 30v57q-260 -259 -263 -259q-7 -3 -10 -3q-17 0 -47 36l-30 28q-109 -112 -115 -112q-3 -2 -6 -2h-5q-24 4 -24 24v2q0 17 53 63q82 87 93 87h6q14 0 52 -44l21 -19
q128 126 237 237h-57q-30 0 -30 25q0 26 29 26z" />
    <glyph glyph-name="uniE060" unicode="&#xe060;" 
d="M591 877h7v-877h-7l-299 292h-257q-35 16 -35 70v153q0 54 35 69h257z" />
    <glyph glyph-name="uniE061" unicode="&#xe061;" 
d="M398 754q240 0 369 -240q33 -84 33 -162q0 -252 -249 -373q-93 -29 -141 -29h-12q-249 0 -373 253q-24 71 -25 145q0 278 278 385q61 17 120 21zM33 352q0 -177 158 -298q109 -67 190 -67h25q205 0 323 212q34 78 34 157q0 224 -237 336q-61 21 -112 21h-41
q-155 0 -282 -166q-58 -110 -58 -195zM394 588q107 0 149 -95q12 -32 12 -46v-33q0 -53 -78 -120q-34 -12 -75 -17q-157 12 -157 158q0 117 111 149q16 4 38 4zM278 427q0 -70 91 -108l29 -4q102 0 120 124q-27 112 -112 112h-16q-74 0 -112 -100v-24zM381 228h50
q99 0 174 -112v-13q0 -8 -8 -8q-82 120 -207 120q-72 0 -162 -87q-11 -29 -21 -29h-4q-8 0 -8 13q71 116 186 116z" />
    <glyph glyph-name="uniE062" unicode="&#xe062;" 
d="M316 699h24q156 0 217 -188v-60q0 -136 -168 -205l-61 -8q-160 0 -224 177l-8 56q0 150 164 220q31 8 56 8zM132 471q0 -135 148 -189q16 -4 32 -4h32q117 0 173 145q4 21 4 40v20q0 125 -149 176q-15 4 -32 4h-24q-128 0 -180 -156q0 -21 -4 -36zM328 190
q188 0 317 -176q24 -32 24 -48q0 -6 -12 -12h-20q-5 0 -84 108q-103 88 -221 88q-176 0 -304 -200h-12q-6 0 -16 16v4q34 99 156 176q96 44 172 44z" />
    <glyph glyph-name="uniE063" unicode="&#xe063;" 
d="M293 750h22q156 0 219 -181q5 -44 5 -69v-77q73 -13 73 -74v-198q0 -135 -160 -202q-16 -9 -47 -9h-194q-142 0 -207 181q-4 61 -4 103v95q0 104 78 104v103q0 153 168 215q16 9 47 9zM134 522v-99h43v81q12 147 133 147q125 -25 125 -116v-112h48v73q0 138 -112 189
q-41 9 -65 9h-4q-118 0 -164 -134q-4 -23 -4 -38zM211 530v-107h194v103q-20 95 -95 95q-99 -17 -99 -91zM56 328v-125q0 -211 211 -211h82q158 0 202 125l5 43v181q0 26 -26 26h-444q-30 0 -30 -39zM306 272h4q43 0 52 -56q-19 -104 -52 -104q-40 0 -56 99v13q0 36 52 48z
" />
    <glyph glyph-name="uniE064" unicode="&#xe064;" 
d="M380 726h24q197 0 324 -196q52 -99 52 -188q0 -248 -252 -368q-70 -24 -128 -24h-20q-229 0 -356 248q-24 85 -24 144q0 246 260 364q61 20 120 20zM28 334q0 -210 212 -324q70 -32 140 -32h20q215 0 328 232q24 73 24 128q0 210 -204 324q-69 36 -144 36h-24
q-207 0 -320 -212q-32 -70 -32 -152zM656 506q5 0 20 -20v-4q-176 -181 -376 -376h-4q-5 0 -176 176v4q0 5 20 20l160 -156q157 162 356 356z" />
    <glyph glyph-name="uniE065" unicode="&#xe065;" 
d="M376 726h28q189 0 316 -184q60 -100 60 -204q0 -202 -188 -332q-94 -56 -200 -56h-12q-194 0 -324 188q-56 100 -56 200q0 237 240 360q74 28 136 28zM28 334q0 -223 236 -336q61 -20 120 -20h12q139 0 248 104q108 112 108 256q0 216 -212 328q-60 32 -140 32h-20
q-194 0 -308 -188q-44 -77 -44 -176zM220 526l180 -176l176 172h4q6 0 16 -16v-4l-172 -176l176 -180q0 -5 -20 -20h-4l-180 176q0 -5 -176 -176h-4q-6 0 -16 16v4l172 176v4l-172 176v4q0 5 20 20z" />
    <glyph glyph-name="uniE066" unicode="&#xe066;" 
d="M388 552q194 0 384 -208q4 -7 4 -16v-16q-191 -212 -376 -212h-32q-175 0 -368 216v8q22 70 192 172q99 56 196 56zM244 328q24 -140 140 -140h20q84 0 124 108q4 16 4 32v8q0 104 -116 136q-3 4 -36 4q-91 0 -132 -112q-4 -22 -4 -36zM396 404q50 0 68 -72
q-19 -76 -76 -76q-61 0 -72 80q0 59 76 68h4z" />
    <glyph glyph-name="uniE067" unicode="&#xe067;" 
d="M376 552h36q77 0 156 -48q-86 -60 -96 -60q-38 32 -84 32q-108 0 -140 -128v-36l4 -20q-131 -88 -144 -88q-108 98 -108 108v16q6 39 156 152q123 72 220 72zM700 552h4q6 0 16 -16v-8q-24 -28 -420 -280q-213 -148 -232 -148h-8q-6 0 -12 12v16q633 424 652 424z
M660 448q43 -22 116 -108v-20q0 -34 -148 -144q-126 -76 -208 -76h-64q-152 26 -152 52l100 64q46 -28 84 -28q102 0 140 112q4 22 4 44l-4 20q123 84 132 84zM404 408l4 -8q0 -4 -92 -64q0 4 -4 4q16 68 92 68zM460 320q0 -4 4 -4q-20 -60 -84 -60h-4v4q0 6 84 60z" />
    <glyph glyph-name="uniE068" unicode="&#xe068;" 
d="M30 554h4q23 0 136 -124l232 -228q345 352 356 352h8q25 0 28 -32q0 -17 -348 -356q0 -5 -36 -36h-8q-23 0 -124 112q-265 258 -268 272v20q0 5 20 20z" />
    <glyph glyph-name="uniE069" unicode="&#xe069;" 
d="M396 742q215 0 292 -232q8 -57 8 -64q0 -199 -276 -492l-20 -4h-8q-42 0 -216 252q-76 138 -76 232v28q0 170 196 264q55 16 100 16zM152 454v-12q0 -178 248 -440q240 278 240 424v40q0 126 -148 204q-48 20 -100 20q-157 0 -228 -168q-12 -32 -12 -68zM396 602
q114 0 148 -132q0 -9 4 -16q0 -100 -104 -144q-15 -8 -32 -8h-20q-144 22 -144 144v12q0 117 148 144zM276 454v-16q26 -108 108 -108h16q92 0 120 108v12q-21 124 -124 124q-120 -19 -120 -120z" />
    <glyph glyph-name="uniE070" unicode="&#xe070;" 
d="M410 742q229 0 356 -232q36 -81 36 -164v-8q0 -219 -228 -352q-89 -36 -168 -36q-262 0 -380 280q-16 80 -16 116q0 232 232 360q86 36 168 36zM50 350v-16q0 -216 232 -324q55 -20 108 -20h32q204 0 316 220q24 63 24 120v32q0 211 -232 320q-62 20 -112 20h-24
q-218 0 -328 -240q-16 -63 -16 -112zM406 566q20 -6 20 -28v-204q-109 -96 -132 -96q-8 2 -16 20q0 6 108 92v188q0 22 20 28z" />
    <glyph glyph-name="uniE071" unicode="&#xe071;" 
d="M78 740h400l8 -4l-12 -40q4 -26 12 -44l-8 -4h-376v-600h596v380l4 8q20 -12 52 -12q26 8 36 8v-428q-7 -44 -44 -44h-692q-42 0 -44 64v648q0 68 68 68zM718 740q72 0 72 -52v-168q-6 -52 -48 -52q-44 0 -44 68v36l4 8h-4q-231 -232 -244 -232h-12q-40 11 -40 40v12
q0 23 112 124l120 124h-68q-44 8 -44 40v20q15 32 56 32h140z" />
    <glyph glyph-name="uniE072" unicode="&#xe072;" 
d="M402 744h4q28 0 128 -244h8q209 0 252 -44v-12q0 -47 -180 -200q48 -167 48 -252q-7 -32 -16 -32h-20q-49 0 -220 120h-4q-146 -104 -224 -120h-16q-14 0 -20 44q16 127 52 240q-184 156 -184 200v12q0 34 264 44q98 244 128 244zM398 632q-70 -197 -96 -208
q-15 -4 -32 -4h-36q-112 0 -112 -16q140 -99 140 -136v-4l-36 -196v-12h4q13 0 144 100l20 4h16q25 0 156 -104h12q0 4 4 12q-40 174 -40 200q0 38 132 128l8 12q-25 12 -120 12h-36q-48 0 -72 96q-37 97 -52 116h-4z" />
    <glyph glyph-name="uniE073" unicode="&#xe073;" 
d="M552 746q26 -10 28 -20q-6 0 -16 -16l-20 4h-16q-24 0 -28 -60v-32q0 -64 40 -64q40 11 40 52v56l-4 28l20 16q16 -16 16 -76q0 -86 -60 -104h-12q-72 0 -72 112q0 104 84 104zM260 722h216q-7 -48 -16 -48h-228q-48 0 -48 -72v-528q0 -76 48 -76h332q52 0 52 52v604
q0 20 -8 48q4 0 4 4q48 -31 48 -68v-588q0 -100 -116 -100h-284q-120 0 -120 116v540q0 116 120 116zM400 538q84 -21 84 -84q-4 -42 -40 -80q100 -42 100 -104q0 -40 -128 -40h-28q-116 0 -132 40q0 30 48 76q37 28 56 28v4q-23 0 -40 72q0 67 76 88h4zM396 358l4 -8
q-32 -69 -32 -80l32 -28l36 32q-32 65 -32 84h-8zM240 146h332q16 -8 16 -20q0 -20 -36 -20h-308q-21 0 -28 16v12q4 12 24 12zM412 82h148q28 0 28 -28l-16 -12h-176q-6 0 -12 12v12q7 16 28 16z" />
    <glyph glyph-name="uniE074" unicode="&#xe074;" 
d="M402 744h4q30 0 128 -244h4q215 0 256 -44v-12q0 -48 -180 -200q48 -167 48 -252q-7 -32 -16 -32h-20q-62 8 -220 120h-4q-146 -104 -224 -120h-16q-14 0 -20 44q16 127 52 240q-184 156 -184 200v12q0 34 264 44q98 244 128 244z" />
    <glyph glyph-name="uniE075" unicode="&#xe075;" 
d="M132 750h444q72 0 72 -72v-116q0 -66 -88 -104l-88 -64v-4q116 -86 116 -200v-12q0 -162 -188 -224q-22 -4 -36 -4h-12q-163 0 -224 180q-8 18 -8 52v4q0 117 116 204v4q-166 113 -172 132l-4 24v136q0 61 72 64zM112 698v-156q70 -60 92 -60v216h-92zM240 698v-240
q12 -18 56 -44q51 4 56 8q44 -8 64 -8q52 38 52 44v240h-228zM504 698v-216q22 0 92 60v156h-92zM172 214v-56q0 -92 120 -148q15 -8 32 -8h60q95 0 152 140q0 19 4 40q0 155 -172 188h-16q-139 0 -180 -156zM472 286l8 -12v-168q0 -24 -20 -24q-16 4 -16 24v144h-20
q-20 0 -24 16q0 20 72 20zM312 270h16l4 -20v-52h48q24 -2 24 -12v-8l-20 -4h-52v-52l-4 -20h-16l-4 20v44q0 8 -8 8h-44l-20 4v16l20 4h52v52z" />
    <glyph glyph-name="uniE076" unicode="&#xe076;" 
d="M400 743q188 0 319 -160q80 -113 80 -214v-55q0 -168 -172 -307q-111 -67 -223 -67h-21q-200 0 -341 210q-42 91 -42 190q0 227 202 349q97 54 198 54zM210 638q56 -21 68 -21q0 10 29 13q14 -9 21 -9q69 38 168 59v4q-57 13 -105 13q-102 0 -181 -59zM345 592v-9
q43 -13 101 -58l-21 -17q-75 50 -89 50q0 -10 -33 -21l-30 13q-125 -125 -134 -189q10 0 12 -30q-4 -8 -4 -13q16 -10 46 -25q21 13 59 17q83 74 152 93h4q0 -9 13 -30q-94 -43 -143 -88q0 -42 67 -42q2 -13 76 -17h8q11 118 29 118l21 -4v-5q-12 -50 -16 -117q63 -5 92 -5
l34 34q0 21 -30 105q4 0 26 17q26 -30 46 -122q35 -21 38 -21q75 10 75 25q13 62 13 97q0 30 -17 88q-5 0 -126 -12l-4 8v21q1 8 8 8h114q0 32 -63 110q-41 -24 -84 -63q-14 12 -21 12v9q63 67 79 67q-59 61 -101 67q-146 -24 -197 -71zM172 617q-90 -74 -126 -214v-26
q6 0 30 -16q0 8 33 21q27 75 148 193v17zM488 512h42q50 -26 50 -76q0 -60 -75 -71h-9q-51 0 -71 67v4q17 76 63 76zM454 440q9 -46 42 -46h25q30 16 30 55q-10 27 -34 38h-17q-33 0 -46 -47zM492 466h21q17 -9 17 -26q-8 -19 -17 -21h-21q-13 5 -13 26v8q0 6 13 13zM46 348
q0 -4 -4 -4q4 -57 13 -101h8l13 59q-15 42 -30 46zM114 293q-17 -20 -30 -118q25 -38 25 -46h9q0 23 63 105l-4 9v25q-56 25 -63 25zM278 222q-16 -25 -43 -25l-37 8q-55 -94 -55 -114q112 -105 248 -105h25l51 4q0 8 -38 43v12l13 21q-13 126 -21 126q-28 0 -143 30z
M631 146q0 -25 -13 -84q110 100 110 147q-59 -8 -59 -21q-13 -42 -38 -42zM463 184q0 -110 33 -135q4 -8 4 -12q-12 -4 -12 -26q4 -12 8 -12q97 21 97 76q0 27 4 71q-25 0 -38 38h-96z" />
    <glyph glyph-name="uniE077" unicode="&#xe077;" 
d="M272 742q113 0 164 -140q4 -35 4 -40q0 -130 -144 -176q-15 -4 -32 -4h-8q-121 0 -172 136q-4 21 -4 40v16q0 122 148 168h44zM120 570v-24q0 -83 116 -124h32q89 0 128 108q4 16 4 32q-20 140 -136 140q0 4 -4 4q-140 -25 -140 -136zM260 678q20 -6 20 -28v-68h92
q8 -2 16 -20q-6 -20 -28 -20h-92q-21 0 -28 16v104q2 8 20 16zM464 618h180q84 -7 84 -72v-532q0 -50 -68 -64h-360q-72 12 -72 76v328l4 8l8 -4h40q8 -1 8 -8v-332q4 -12 24 -12h344q6 0 16 16v512q0 21 -12 24h-188q-8 0 -16 56zM376 390h216q8 -2 16 -20q-8 -18 -16 -20
h-216q-6 0 -16 16v8q0 6 16 16zM376 274h216q8 -2 16 -20q-8 -18 -16 -20h-216q-6 0 -16 16v8q0 6 16 16zM388 154h192q22 0 28 -20q-8 -18 -16 -20h-216q-16 8 -16 20q6 20 28 20z" />
    <glyph glyph-name="uniE078" unicode="&#xe078;" 
d="M230 684q97 0 167 -70q78 70 171 70q156 0 220 -160q10 -39 10 -67q0 -194 -377 -447q-4 -10 -20 -10h-4q-17 0 -197 140q-200 176 -200 321q0 146 154 210q30 10 76 13zM43 454q0 -99 141 -237q160 -143 220 -167q351 242 351 411q0 110 -114 163q-27 14 -57 14h-30
q-81 0 -147 -80q-5 -4 -13 -4q-4 0 -47 47q-51 37 -100 37h-33q-109 0 -161 -124q-10 -25 -10 -60z" />
    <glyph glyph-name="uniE079" unicode="&#xe079;" 
d="M633 777q44 0 136 -112q31 -22 31 -58v-8q0 -36 -66 -97q-479 -498 -489 -498q-230 -54 -245 -54v4q60 272 70 272q502 525 532 544q14 7 31 7zM625 715q-41 -43 -73 -81q50 -60 112 -117h4q0 8 74 82v4q-95 112 -117 112zM128 199l113 -117q52 49 384 396
q-108 110 -108 117h-4q-385 -394 -385 -396zM105 144q-16 -73 -27 -112h7l101 23v4q-63 72 -81 85z" />
    <glyph glyph-name="uniE080" unicode="&#xe080;" 
d="M294 777q3 0 276 -280h220q5 0 10 -10v-301q0 -5 -10 -10h-152q-10 4 -10 20v7q2 20 10 20h115v227h-172v-490q0 -5 -11 -10h-290q-5 0 -10 10v226l-270 284q0 19 101 111q0 8 189 196h4zM84 504v-7h186v192q-182 -185 -186 -185zM317 689v-192h183v3q-179 184 -179 189
h-4zM84 450l183 -189h3v189h-186zM317 450v-453h213q7 0 7 7v446h-220z" />
    <glyph glyph-name="uniE081" unicode="&#xe081;" 
d="M394 652h16q132 0 200 -168q12 -69 24 -100q-4 -7 -4 -16v-4q84 -62 84 -148q0 -38 -28 -44q-25 0 -40 52h-8q0 -37 -48 -92v-4q48 -12 48 -44q-14 -44 -104 -44h-20q-32 0 -100 28h-24q-68 -28 -100 -28h-20q-104 0 -104 52q20 36 48 36v4q-48 55 -48 92h-8
q-14 -52 -40 -52q-28 0 -28 48q0 80 84 144v4q0 9 -4 16q36 157 72 192q75 76 152 76z" />
    <glyph glyph-name="uniE082" unicode="&#xe082;" 
d="M582 640q184 -27 184 -180q0 -96 -40 -96q-25 8 -28 20v8l12 60q0 112 -144 132q-16 0 -44 -8q-16 6 -24 20v20q0 24 84 24zM330 556q60 0 60 -68l-8 -36l8 -4q85 24 104 24h20q56 -5 56 -48v-16l-12 -40l52 -28q32 0 48 -72v-4q0 -144 -256 -200q-47 -4 -68 -4
q-206 0 -284 124q-20 35 -20 76q0 119 200 264q60 32 100 32zM562 536q79 0 92 -72v-32q0 -21 -12 -24h-16q-9 0 -12 20l4 16q-6 52 -40 52h-40q-6 0 -12 12v12q0 11 36 16zM102 244v-20q0 -89 156 -120q1 -4 40 -4h12q162 0 224 132l4 28q0 108 -204 124q-168 0 -228 -120
q-4 -7 -4 -20zM314 332q104 -12 104 -100q0 -83 -124 -100h-4q-104 12 -104 72v12q15 112 108 112zM310 244q4 -16 16 -16q16 6 16 12v12q0 8 -8 8q-20 0 -24 -16zM222 200q0 -28 40 -28q44 7 44 44q0 16 -36 28q-48 -9 -48 -44z" />
    <glyph glyph-name="uniE083" unicode="&#xe083;" 
d="M308 640q157 0 236 -144q8 -15 8 -32q-4 0 -4 -4q-4 0 -12 4q-168 0 -220 -172v-40l4 -40q-8 -4 -12 -4q-46 0 -104 8q-69 -36 -76 -36l-4 8q16 37 16 60q-100 72 -100 164v12q0 150 196 212q48 4 72 4zM180 508v-8q3 -32 40 -32q25 0 28 36q-11 28 -32 28t-36 -24z
M356 496q0 -23 44 -28q24 8 24 32q0 32 -36 32q-26 0 -32 -36zM524 448h36q135 0 196 -140q4 -22 4 -36v-24q0 -56 -84 -128q12 -56 12 -60h-8l-56 32q-56 -12 -80 -12q-153 0 -208 140q-4 16 -4 32v36q0 97 152 156zM452 328v-12q12 -20 28 -20q28 10 28 28q0 16 -32 24
q-16 -5 -24 -20zM592 320v-4q8 -14 24 -20q28 5 28 28q-4 24 -28 24q-24 -6 -24 -28z" />
    <glyph glyph-name="uniE084" unicode="&#xe084;" 
d="M386 615q354 -156 379 -172l5 -17q0 -13 -8 -23v-86q30 0 38 -55q-13 -46 -45 -46h-11q-39 0 -47 51q10 50 37 50v68h-2q-124 -62 -124 -65v-154q0 -41 -139 -78q-40 -8 -85 -8q-149 0 -220 76l-2 15v149q-4 4 -154 83q-8 14 -8 20q0 29 83 56q194 91 303 136zM48 426v-5
l338 -177q292 155 338 177q-23 14 -338 156q-322 -146 -338 -151zM199 307v-139q73 -50 167 -50h38q106 0 169 55v134h-3q-139 -73 -186 -93zM724 267q5 -23 23 -23h3q19 0 22 25q-8 23 -25 23q-16 0 -23 -25z" />
    <glyph glyph-name="uniE085" unicode="&#xe085;" 
d="M390 719h13q6 0 14 -14v-40q0 -9 264 -61q81 -18 81 -24v-10q0 -7 -6 -7h-92v-3q132 -206 132 -237q0 -66 -98 -112q-36 -10 -68 -10q-111 0 -156 94l-6 31q0 26 132 234v3h-183l3 -41v-423h4q122 0 233 -105l4 -20v-4q0 -5 -10 -10h-509q-7 0 -10 17q0 47 149 105
q47 17 92 17v3q3 310 3 461h-183v-3q132 -204 132 -237q0 -74 -108 -116q-36 -6 -54 -6q-136 0 -163 118v14q0 24 115 203q14 19 14 27h-88q-5 0 -11 10v4q0 12 173 44q106 27 173 37v37q0 18 14 24zM159 533q-109 -179 -118 -204v-3q23 -20 108 -20h14q107 0 122 23
q-7 19 -122 204h-4zM630 533q-118 -191 -118 -204v-6q39 -17 118 -17h14q108 0 108 27v3q-107 182 -122 197z" />
    <glyph glyph-name="uniE086" unicode="&#xe086;" 
d="M385 760h24q233 0 360 -248q31 -92 31 -157q0 -238 -231 -368q-82 -37 -160 -37h-24q-189 0 -324 187q-61 102 -61 204v28q0 222 228 354q88 37 157 37zM54 352q0 -195 188 -307q81 -41 156 -41q190 0 303 184q41 79 41 153v28q0 205 -225 316q-64 17 -119 21
q-190 0 -306 -191q-38 -80 -38 -163zM388 621h21q4 0 10 -11v-313q0 -5 -10 -10q-96 86 -178 170v7q0 5 24 24h4q109 -103 115 -109v228q0 5 14 14zM174 386h3q26 0 31 -34q-9 -28 -31 -28h-3q-31 6 -31 31q7 31 31 31zM623 386q31 -5 31 -31q-5 -31 -31 -31q-19 0 -31 21
v20q12 21 31 21zM402 161q27 -9 27 -31v-3q0 -27 -34 -31q-27 10 -27 34q0 22 34 31z" />
    <glyph glyph-name="uniE087" unicode="&#xe087;" 
d="M313 720q198 0 274 -219q4 -29 4 -47v-34q0 -46 -34 -129q223 -212 223 -235v-13q0 -73 -81 -73q-29 0 -176 159q-66 64 -73 64q-64 -34 -120 -34h-34q-174 0 -257 205q-9 52 -9 77q0 192 210 270q43 9 73 9zM103 450v-26q0 -140 171 -193q23 -4 39 -4q144 0 201 159
q9 23 9 60q0 131 -154 197l-43 4h-26q-132 0 -193 -158q-4 -24 -4 -39zM287 591h43q6 0 13 -12v-249q0 -6 -13 -13h-47q-13 4 -13 26v231q0 7 17 17zM390 519h43q7 0 17 -18v-158q0 -22 -13 -26h-47q-6 0 -13 13v176q0 6 13 13zM180 424h51q9 -1 9 -8v-86q0 -6 -13 -13h-47
q-13 4 -13 26v68q0 7 13 13z" />
    <glyph glyph-name="uniE088" unicode="&#xe088;" 
d="M398 588q96 0 116 -136q0 -63 -60 -120q168 -69 168 -88v-144q0 -5 -20 -20h-408q-5 0 -20 20v136q0 29 84 56q79 38 84 44q-60 42 -60 120q22 132 116 132zM586 540q92 -17 92 -112q0 -54 -48 -96q136 -52 136 -76v-112q-6 -16 -28 -16h-72q-8 0 -8 8v112q0 41 -128 92
l-8 12q28 48 28 104q0 19 -12 68q13 8 48 16zM198 536h28q30 -5 32 -16q-12 -26 -12 -56v-16q0 -45 28 -100q-9 -9 -120 -64q-20 -24 -20 -64v-84q0 -8 -8 -8h-68q-28 0 -28 36v84q0 33 132 80l4 8q-48 38 -48 96q21 104 80 104z" />
    <glyph glyph-name="uniE089" unicode="&#xe089;" 
d="M632 708q67 -32 92 -60v-4q-29 -30 -100 -60q-20 0 -32 20q0 3 24 24h-60q-33 -10 -308 -180q-22 -16 -56 -16h-60q-46 0 -52 20q6 20 52 20h60q12 0 328 192h96l-24 24q0 20 40 20zM368 476h80q20 -10 20 -32v-348q0 -22 -20 -32h-80q-20 10 -20 32v348q0 22 20 32z
M548 368h32q44 0 44 -36v-236q0 -22 -20 -32h-80q-20 10 -20 32v240q0 32 44 32zM224 228h56q32 0 32 -32v-100q0 -22 -20 -32h-80q-20 10 -20 32v100q0 32 32 32zM128 36h560q6 0 16 -16v-24q0 -6 -16 -16h-560q-6 0 -16 16v24q0 6 16 16z" />
    <glyph glyph-name="uniE090" unicode="&#xe090;" 
d="M132 708h60q42 0 128 -60q221 -136 236 -136h60l-24 24q12 20 32 20q21 0 100 -60v-4q-42 -42 -100 -60q-32 0 -32 24q24 15 24 20h-88q-14 0 -328 192h-68q-46 0 -52 20q6 20 52 20zM368 476h80q20 -10 20 -32v-348q0 -22 -20 -32h-80q-20 10 -20 32v348q0 22 20 32z
M548 368h32q44 0 44 -36v-236q0 -22 -20 -32h-80q-20 10 -20 32v240q0 32 44 32zM224 228h56q32 0 32 -32v-100q0 -22 -20 -32h-80q-20 10 -20 32v100q0 32 32 32zM128 36h560q6 0 16 -16v-24q0 -6 -16 -16h-560q-6 0 -16 16v24q0 6 16 16z" />
    <glyph glyph-name="uniE091" unicode="&#xe091;" 
d="M355 659h101q25 -13 25 -41v-441q0 -27 -25 -40h-101q-26 13 -26 40v441q0 28 26 41zM583 522h40q56 0 56 -46v-299q0 -27 -25 -40h-102q-25 13 -25 40v304q0 41 56 41zM172 345h71q41 0 41 -41v-127q0 -27 -26 -40h-101q-26 13 -26 40v127q0 41 41 41zM50 101h710
q8 0 21 -20v-31q0 -8 -21 -20h-710q-8 0 -20 20v31q0 8 20 20z" />
    <glyph glyph-name="uniE092" unicode="&#xe092;" 
d="M314 690q185 0 256 -204q4 -27 4 -44v-32q0 -43 -32 -120q208 -198 208 -220v-12q0 -68 -76 -68q-27 0 -164 148q-61 60 -68 60q-59 -32 -112 -32h-32q-162 0 -240 192q-8 48 -8 72q0 179 196 252q40 8 68 8zM118 438v-24q0 -131 160 -180q22 -4 36 -4q135 0 188 148
q8 22 8 56q0 123 -144 184l-40 4h-24q-124 0 -180 -148q-4 -22 -4 -36zM206 506h20q14 0 52 -136h-24q-9 0 -12 28h-52q-3 -28 -12 -28h-24q39 136 52 136zM214 474q0 -11 -16 -52h36q-16 41 -16 52h-4zM438 470q44 0 44 -52q0 -8 -8 -8h-56v-4q8 -20 24 -20q8 0 28 8l4 -8
v-8q-2 -12 -32 -12h-4q-48 4 -48 40v12q6 52 48 52zM318 466h20l12 -8q1 8 8 8h16q8 -1 8 -8v-52q0 -84 -64 -84q-28 4 -28 12v16l28 -4h4q28 0 28 28v4q-15 -12 -28 -12q-37 0 -44 48q8 52 40 52zM310 418v-4q3 -24 12 -24h16q12 4 12 24v16q-8 16 -20 16q-20 -6 -20 -28z
M418 426h36v8q0 6 -12 12h-12q-9 0 -12 -20z" />
    <glyph glyph-name="uniE093" unicode="&#xe093;" 
d="M412 578q278 -140 360 -176v-12l-168 -64q-92 84 -180 84h-24q-93 0 -216 -84q-56 24 -64 24v-76q16 0 20 -24q-5 -16 -20 -24l20 -76l-8 -4h-44q0 23 16 84q-6 0 -16 16v12l16 20v76q-13 14 -84 40v8q121 52 392 176zM404 370q107 0 180 -68v-140q-65 -52 -184 -52h-8
q-111 0 -164 48v148q77 64 176 64zM256 166q41 -28 140 -28h12q140 7 140 36t-148 36q-144 0 -144 -44z" />
    <glyph glyph-name="uniE094" unicode="&#xe094;" 
d="M456 662h168q8 -1 8 -8v-168q0 -8 -8 -8h-28q-8 0 -8 8v100q-5 0 -76 -76v-4q40 -58 40 -124q0 -142 -164 -188h-12v-48h76q8 -1 8 -8v-32q0 -8 -8 -8h-76v-80q0 -8 -8 -8h-32q-8 0 -8 8v72q0 8 -8 8h-72q-8 0 -8 8v32q1 8 8 8h80v48q-86 0 -152 116q-16 36 -16 76v4
q0 135 148 188q22 4 36 4h24q52 0 108 -40h4q3 0 72 76h-96q-8 0 -8 8v28q1 8 8 8zM220 390q23 -136 136 -136q106 0 132 116v32q0 79 -104 116q-10 0 -32 4q-128 -24 -128 -128q-4 0 -4 -4z" />
    <glyph glyph-name="uniE095" unicode="&#xe095;" 
d="M280 648h228q40 -5 40 -40v-60h124q80 0 80 -80v-128q0 -8 -8 -8h-696q-8 0 -8 8v144q0 64 80 64h124v64q5 36 36 36zM292 596v-48h204v48h-204zM48 292h252q8 -1 8 -8v-64q7 -16 28 -16h120q28 0 28 28v52q1 8 8 8h252q8 -1 8 -8v-176q-8 -68 -64 -68h-592q-45 0 -56 64
v180q1 8 8 8zM352 292h84q8 -1 8 -8v-32q0 -8 -8 -8h-84q-8 0 -8 8v32q1 8 8 8z" />
    <glyph glyph-name="uniE096" unicode="&#xe096;" 
d="M394 712h12l108 -184h228q8 -1 8 -8q-6 0 -116 -184l116 -188l-8 -4h-228q-100 -172 -116 -184h-4l-108 184h-228l-8 4q33 57 116 188l-116 188l8 4h220q30 33 116 184zM346 528h108q-52 82 -52 88q-6 -1 -56 -88zM142 476q50 -79 52 -88q14 13 56 88h-108zM230 336
q79 -138 88 -140h164q8 4 88 140q-73 127 -88 140h-164q-15 -9 -88 -140zM550 476v-4q48 -74 48 -80h4q5 1 56 84h-108zM194 284q-3 -9 -52 -88h108q-40 72 -56 88zM550 200v-4h104v4q-48 79 -48 84q-6 0 -56 -84zM350 148l-4 -8q5 0 52 -80h4l52 84q-4 0 -4 4l-8 -4h-84z
" />
    <glyph glyph-name="uniE097" unicode="&#xe097;" 
d="M360 716q9 0 104 -52q27 -4 44 -4h44q22 0 32 -20v-16q0 -71 -108 -132q-39 16 -56 16h-8q-52 -12 -68 -12q-36 0 -56 112q20 108 72 108zM208 536h8q24 0 108 -56q21 -8 32 -8q43 12 64 12q104 -19 104 -44q160 -142 160 -272v-24q0 -114 -140 -164q-55 -20 -124 -20
q-216 0 -292 176q-8 36 -8 52v4q0 120 160 256h-8l-76 -20l-8 12v12q0 12 68 28v4q-56 26 -56 32v12q1 8 8 8zM312 288v-16q0 -48 80 -72v-92l-4 -8q-17 2 -56 52h-12q-9 -20 -12 -20q29 -64 80 -64q5 -48 20 -48h12q15 0 20 48q76 18 76 68v28q0 47 -80 72v76q1 8 8 8
t40 -36h8q16 8 16 20q-31 56 -72 56q0 48 -16 48h-4q-24 0 -24 -40q0 -4 -56 -28q-24 -26 -24 -52zM388 324h4v-68q0 -8 -12 -8q-28 12 -28 36v4q5 36 36 36zM436 184h16q24 -14 24 -40q-13 -40 -36 -40l-4 8v72z" />
    <glyph glyph-name="uniE098" unicode="&#xe098;" 
d="M48 590h36q8 -1 8 -8v-456h660q8 -1 8 -8v-40q0 -8 -8 -8h-704q-8 0 -8 8v504q1 8 8 8zM304 538h88q8 -1 8 -8v-348q0 -8 -8 -8h-88q-8 0 -8 8v348q1 8 8 8zM460 382h88q8 -1 8 -8v-192q0 -8 -8 -8h-88q-8 0 -8 8v192q1 8 8 8zM148 330h92q8 -1 8 -8v-140q0 -8 -8 -8h-92
q-8 0 -8 8v140q1 8 8 8zM612 278h92q8 -1 8 -8v-88q0 -8 -8 -8h-92q-8 0 -8 8v88q1 8 8 8z" />
    <glyph glyph-name="uniE099" unicode="&#xe099;" 
d="M416 702q128 -31 128 -160q-24 -152 -152 -152q-89 0 -132 120q0 5 -4 40q0 113 120 152h40zM356 386q35 -4 44 -4t44 4q137 0 188 -140q8 -28 8 -48v-172q-25 -39 -208 -56h-44q-185 20 -228 52v172q0 137 152 188q17 0 44 4zM364 346v-4q19 -60 28 -60h24q0 5 24 60
l-8 4h-68zM388 266q-8 -148 -8 -160h-4l4 -8l-4 -24q20 -36 20 -40h4q22 21 24 40q-4 116 -12 200h-16q-8 -1 -8 -8z" />
    <glyph glyph-name="uniE100" unicode="&#xe100;" 
d="M302 690h12q183 0 256 -196q8 -60 8 -72q0 -58 -36 -124v-4q208 -208 208 -220v-20q-8 -64 -64 -64h-12q-28 0 -156 140l-72 68h-4q-64 -36 -128 -36q-189 0 -260 208q-4 34 -4 56v12q0 156 172 236q40 16 80 16zM118 426q0 -133 144 -188q41 -5 48 -8q142 0 192 152
l8 44q-31 196 -196 196q-143 0 -192 -152q-4 -27 -4 -44z" />
    <glyph glyph-name="uniE101" unicode="&#xe101;" 
d="M339 706h10q12 0 38 -192q-1 -16 -86 -58v-5q101 -303 115 -303h5q41 0 67 10q30 0 111 -168q0 -10 -15 -10q-216 22 -216 53q-178 224 -178 442v58q0 35 149 173z" />
    <glyph glyph-name="uniE102" unicode="&#xe102;" 
d="M349 385q167 0 339 -192q-168 -193 -349 -193q-167 0 -339 193q168 192 349 192zM64 193q103 -100 175 -120q-56 62 -56 120q0 57 56 119h-5q-79 -30 -170 -119zM449 312q56 -62 56 -119q0 -58 -56 -120h5q79 30 170 120q-103 99 -175 119zM252 188q17 -87 87 -87h10
q76 0 87 96q-17 87 -87 87h-10q-76 0 -87 -96zM344 257q55 0 64 -74l-9 -4l-27 4q-23 -7 -23 -27l4 -28h-4q-69 9 -69 69q18 60 64 60z" />
    <glyph glyph-name="uniE103" unicode="&#xe103;" 
d="M292 640q229 0 280 -92q4 -6 4 -24q-8 -26 -8 -36v-412q-80 -76 -284 -76q-194 0 -276 76v412l-8 48q37 104 284 104h8zM44 536v-12q60 -64 240 -64h8q180 0 240 64v12q-60 64 -236 64h-16q-176 0 -236 -64zM44 468v-64q56 -64 248 -64q181 0 240 64v64q-94 -48 -248 -48
q-146 0 -240 48zM44 348v-88q56 -64 248 -64q181 0 240 64v88q-91 -48 -248 -48q-146 0 -240 48zM44 204v-100q56 -64 248 -64q181 0 240 64v100q-91 -48 -248 -48q-146 0 -240 48z" />
    <glyph glyph-name="uniE104" unicode="&#xe104;" 
d="M65 493h568q65 -19 65 -65v-363q-19 -65 -65 -65h-568q-65 19 -65 65v363q19 65 65 65zM140 302q0 -22 32 -60q-107 -42 -107 -140h293v5q0 96 -102 130v10q28 30 28 51v14q0 48 -70 65q-74 -14 -74 -75zM205 358h18q26 0 42 -28v-9q-24 23 -42 23h-18q-17 0 -42 -18v4
q12 28 42 28zM377 340v-14h126v14h-126zM377 298v-14h256v14h-256zM377 251v-14h256v14h-256zM377 209v-14h256v14h-256zM377 168v-14h256v14h-256z" />
    <glyph glyph-name="uniE105" unicode="&#xe105;" 
d="M9 655h122q9 -1 9 -9v-646h-131q-9 0 -9 9v637q1 9 9 9zM179 655h371q9 -1 9 -9v-637q0 -9 -9 -9h-367l-8 4l4 22v629zM319 581h-48q0 -43 -40 -57q-8 0 -8 -13q17 -26 17 -35l-17 -31v-4q43 -31 43 -39q0 -31 9 -31h13l22 5l4 -9v-92q31 22 31 35h9l35 -30v87l4 9l22 -5
h17q0 48 48 66v4q-17 32 -17 39q17 27 17 40q-43 12 -43 52q-5 9 -5 13l-52 -4q-15 26 -31 26zM345 555h13q74 -16 74 -70v-13q0 -58 -83 -75q-78 19 -78 79v9q0 55 74 70zM240 231q2 -8 9 -8h196q9 0 9 8q0 9 -9 9h-196q-9 -1 -9 -9zM240 175v-9h214v9q0 8 -9 8h-196
q-9 -1 -9 -8z" />
    <glyph glyph-name="uniE106" unicode="&#xe106;" 
d="M22 519h605v-4q-30 -35 -298 -277h-5q-288 258 -302 277v4zM0 493h4q48 -39 243 -221q-58 -65 -243 -255h-4v476zM644 493h5v-476h-5q-210 220 -237 255q6 11 237 221zM264 251h8q48 -48 61 -48q36 48 61 48l224 -247v-4h-588v4q13 22 234 247z" />
    <glyph glyph-name="uniE107" unicode="&#xe107;" 
d="M85 707h367q85 -13 85 -66v-575q0 -53 -85 -66h-367q-85 13 -85 66v575q0 53 85 66zM217 627v-5l23 -5h57l24 5v5q0 9 -10 9h-85q-9 -1 -9 -9zM94 561v-382h349v382h-349zM174 113v-9q5 -14 29 -14q19 7 19 14v9q-5 14 -29 14q-19 -7 -19 -14zM245 113v-9q5 -14 28 -14
q19 7 19 14v9q-4 14 -28 14q-19 -7 -19 -14zM316 113v-9q5 -14 28 -14q19 7 19 14v9q-5 14 -28 14q-19 -7 -19 -14z" />
    <glyph glyph-name="uniE108" unicode="&#xe108;" 
d="M14 570h238q70 0 98 -51q7 0 94 -94v-107q148 149 168 149h5q84 -48 84 -89q0 -26 -159 -172l-98 -103v-94q0 -9 -9 -9h-24q-152 0 -406 5l-5 9q5 459 5 551zM47 528v-37q0 -143 -5 -444h5q92 0 350 -5l5 9v19l-5 9l-103 -28l-4 10q0 14 9 37l-9 5h-187q-10 0 -10 9v23
q2 10 10 10h201q8 0 18 47q7 0 14 14l-23 4h-210q-10 0 -10 10v23q2 9 10 9h238q9 0 9 -28h5q6 0 47 47v121h-5q-27 0 -117 5l-4 9v117q-119 5 -173 5h-56zM575 397q0 -6 56 -56q6 0 37 37q0 7 -56 57q-6 0 -37 -38zM360 178q0 -7 56 -57l191 197q0 6 -56 56
q-131 -125 -191 -196zM112 360q66 0 234 -5l4 -9v-24l-4 -9q-70 5 -103 5h-136q-9 0 -9 9v23q0 10 14 10zM341 150q-9 -52 -9 -57q44 14 51 14q0 7 -42 43z" />
    <glyph glyph-name="uniE109" unicode="&#xe109;" 
d="M263 660h18q176 0 250 -201l9 -67q0 -37 -27 -120q156 -145 156 -174v-18q-11 -80 -80 -80h-5q-49 0 -160 129q-24 23 -32 23q-61 -32 -120 -32h-13q-179 0 -250 197q-9 33 -9 62v18q0 180 201 254q33 9 62 9zM67 397v-9q0 -142 152 -196q24 -5 40 -5h17q152 0 197 188
v22q0 135 -152 192q-24 4 -40 4h-13q-145 0 -197 -160q-4 -18 -4 -36zM433 366h4q9 -2 9 -9v-5q0 -83 -125 -142h-9q-9 0 -9 9v4q0 5 72 49q49 64 49 89zM633 116q0 -80 -76 -80q5 -14 27 -14h5q58 15 58 58v9q0 23 -14 27z" />
    <glyph glyph-name="uniE110" unicode="&#xe110;" 
d="M215 733h20q148 0 210 -181q5 -25 5 -49v-5q0 -57 -83 -210q-21 -102 -30 -102l5 -25l-15 -19q15 -5 15 -30l-15 -19q15 -5 15 -29q0 -20 -68 -25q0 -39 -44 -39h-5q-44 6 -44 44h-49q-10 2 -20 24l15 30q-7 0 -15 19l15 25l-15 24q5 10 5 15q-12 0 -39 117
q-78 143 -78 200v5q0 161 171 225q26 5 44 5zM39 489q0 -27 73 -176q25 -71 25 -93h44q-35 208 -44 225q-29 12 -29 34q19 49 117 49h14q98 0 98 -49q-29 -29 -39 -103q0 -12 -29 -156h44q0 50 97 254v34q-29 186 -185 186q-135 0 -186 -156v-49zM176 454q10 -36 44 -234h10
q39 183 39 239l-30 5q-41 0 -63 -10zM156 161v-10q2 -9 10 -9h122q7 0 15 14l-10 5h-137zM156 103v-15h137q10 0 10 10l-10 5h-137z" />
    <glyph glyph-name="uniE111" unicode="&#xe111;" 
d="M344 655h10l81 -244h263v-5l-206 -157l72 -249h-5l-210 148l-210 -148h-5v5l72 244l-206 157v5h263z" />
    <glyph glyph-name="uniE112" unicode="&#xe112;" 
d="M314 715h5q6 0 82 -82v-5q0 -6 -82 -82h-5v39q-166 0 -222 -184v-63q0 -72 63 -140q0 -7 -63 -63q-92 88 -92 189v62q0 150 159 252q70 38 126 38h29v39zM536 580q92 -92 92 -194v-53q0 -170 -203 -275q-68 -19 -111 -19v-39h-5q-6 0 -82 82v5q0 6 82 82h5v-39
q152 0 217 179q5 26 5 44v9q0 87 -63 155v5q1 8 63 58z" />
    <glyph glyph-name="uniE113" unicode="&#xe113;" 
d="M9 711h522q9 -2 9 -10v-597q-1 -8 -109 -104h-422q-9 0 -9 9v692q1 10 9 10zM109 592v-4h332v4h-332zM109 507v-9h332v9h-332zM109 417v-5h332v5h-332zM109 332v-10h332v10h-332zM109 246v-9h332v9h-332zM422 118v-94q6 0 95 94h-95z" />
    <glyph glyph-name="uniE114" unicode="&#xe114;" 
d="M234 662h26q88 0 133 -119q9 -17 9 -49v-79h39q40 0 44 -53v-318q-8 -44 -44 -44h-410q-31 14 -31 40v331q9 44 44 44h40v75q19 172 150 172zM119 415h247v97q0 101 -128 119q-83 0 -119 -101v-115zM35 380l-4 -23v-313q0 -6 13 -13h397q9 0 9 9v340h-415zM247 282
q34 0 40 -53q-13 -15 -18 -83l-17 -14h-18q-6 0 -22 22v49q-13 16 -13 31q6 48 48 48z" />
    <glyph glyph-name="uniE115" unicode="&#xe115;" 
d="M88 596l228 -468q216 348 228 360q24 -14 24 -36q-244 -424 -264 -452h-4q-289 541 -300 572v4q75 20 88 20z" />
    <glyph glyph-name="uniE116" unicode="&#xe116;" 
d="M19 495h663v-5q-27 -31 -327 -266h-5q-310 241 -331 266v5zM332 476v-93l4 -56h28l5 56v93h-37zM0 467h5q237 -181 261 -210q-253 -237 -261 -238h-5v448zM696 467h4v-448h-4q-41 31 -257 238v9q24 15 257 201zM327 276q7 -19 14 -19h23q7 0 14 14v14q0 7 -14 14h-9
q-28 0 -28 -23zM290 243l60 -47h5q3 0 61 47q40 -31 256 -238v-5h-635q-9 0 -9 9z" />
    <glyph glyph-name="uniE117" unicode="&#xe117;" 
d="M300 682h4q6 0 78 -78v-5q0 -6 -78 -78h-4v37q-159 0 -212 -176v-59q0 -70 59 -134q0 -7 -59 -60q-88 83 -88 180v60q0 143 152 239q67 37 120 37h28v37zM512 553q87 -87 87 -184v-51q0 -163 -193 -263q-66 -18 -106 -18v-37h-5q-6 0 -78 78v5q0 6 78 78h5v-37
q145 0 207 171q5 25 5 41v10q0 82 -60 147v5q0 8 60 55zM281 479h46q15 0 97 -244l-9 -5h-42q-12 0 -23 56h-92q-14 -56 -23 -56h-51v5q81 244 97 244zM300 429q0 -15 -28 -97h60v4q-28 85 -28 93h-4z" />
    <glyph glyph-name="uniE118" unicode="&#xe118;" 
d="M295 324h419v-5q0 -5 -238 -171h-4q-186 167 -186 171zM267 305h9q143 -129 143 -134v-9q-11 -3 -195 -152q0 4 -5 4q24 121 48 291zM719 305l5 -10l-43 -281h-14q0 8 -134 153q30 30 186 138zM71 281h100q10 -1 10 -9v-10q0 -10 -10 -10h-100q-9 0 -9 10v10q1 9 9 9z
M86 181h95q10 -1 10 -10v-9q0 -10 -10 -10h-95q-10 0 -10 10v9q2 10 10 10zM433 157q6 0 39 -28q35 28 52 28l133 -152l-9 -5h-405v5q25 30 190 152zM10 57h138q9 -1 9 -9v-10q0 -9 -9 -9h-138q-10 0 -10 9v10q1 9 10 9z" />
    <glyph glyph-name="uniE119" unicode="&#xe119;" 
d="M9 676h554q9 -1 9 -9v-658q0 -9 -9 -9h-554q-9 0 -9 9v658q1 9 9 9zM113 641v-606h34v606h-34zM191 641v-606h342v606h-342zM355 620q33 -31 39 -31l26 5h9q8 0 17 -48q35 -8 35 -26q-17 -26 -17 -35q17 -31 17 -39q-39 -21 -39 -34q-5 -35 -17 -35l-31 4v-91h-4l-35 31
q-31 -35 -34 -35l-5 9v86h-4l-30 -4q-13 17 -13 39v9q-39 12 -39 21q0 8 17 44q-17 26 -17 39q39 17 39 39q4 26 13 26h17q10 0 17 -5q6 0 39 31zM277 490v-5q0 -44 39 -65q67 18 74 18q4 -8 4 -18q39 21 39 65q-14 78 -65 78h-26q-49 0 -65 -73zM256 251h190q9 -1 9 -8
q0 -9 -9 -9h-190q-9 0 -9 9q1 8 9 8zM256 195h190q9 -1 9 -9t-9 -8h-190q-9 0 -9 8q1 9 9 9z" />
    <glyph glyph-name="uniE120" unicode="&#xe120;" 
d="M73 699h553q73 -10 73 -73v-557q0 -58 -73 -69h-462q-44 2 -44 40q12 33 37 33h400q69 0 69 54v408q0 88 -33 88q-19 3 -36 3h-415q-66 0 -66 -43q-3 -1 -3 -37v-510q0 -23 -22 -32q-51 22 -51 69v553q10 73 73 73zM186 561q29 -16 29 -37q0 -3 -4 -3q25 -131 131 -131
h15q86 0 124 98q0 73 40 73q36 -4 36 -33v-18q0 -126 -153 -190l-54 -7q-152 0 -208 171l-4 33q0 44 48 44z" />
    <glyph glyph-name="uniE121" unicode="&#xe121;" 
d="M466 798h12q77 0 88 -116q0 -38 -56 -160q-4 -24 -8 -24l8 -20l8 4h80q152 0 152 -40q24 -23 24 -44v-16l-24 -32v-8q0 -14 24 -48v-16q-32 -36 -32 -52q16 -51 16 -56q0 -8 -44 -60q0 -8 -4 -8l4 -8v-8q0 -74 -120 -88h-76q-164 0 -320 40v320q0 5 40 16q67 65 112 188
q96 72 96 160q6 76 20 76zM46 382h96q32 0 32 -32v-312q-14 -24 -36 -24h-88q-22 0 -40 28v312q13 28 36 28z" />
    <glyph glyph-name="uniE122" unicode="&#xe122;" 
d="M408 664q335 -148 388 -168v-8h-788v8q385 168 400 168zM400 624q-1 -6 -80 -40l-4 -8q0 -8 28 -16q13 8 24 8v-4q-16 -17 -36 -52h16q0 20 44 64h-8l-48 -4l-4 8q37 20 60 20h16q20 -10 20 -32q0 -20 -16 -48h4l28 32q21 -4 24 -4l28 4v4q-34 0 -52 8v8h20v4l-24 4v8h32
v4q-19 0 -40 4v8q24 0 24 8q-4 0 -12 -4q-26 0 -44 16zM356 516h8q0 3 8 24q-7 0 -16 -24zM8 480h784l8 -4q-4 -101 -4 -148v-320q0 -8 -8 -8h-4q-8 0 -8 8v408h-144v-380q0 -8 -8 -8h-4q-8 0 -8 8v380h-420v-380q0 -8 -8 -8h-4q-8 0 -8 8v380h-144v-408q0 -8 -8 -8h-4
q-8 0 -8 8v404l-8 12v48q1 8 8 8z" />
    <glyph glyph-name="uniE123" unicode="&#xe123;" 
d="M398 624q96 0 132 -108q0 -7 8 -32q0 -75 -76 -132q-57 -16 -64 -16q-52 0 -108 56q-28 47 -28 92q0 99 108 136zM106 448q61 0 68 -76v-4q0 -54 -72 -68q-72 18 -72 72q14 76 76 76zM694 448q61 0 68 -76v-4q0 -54 -72 -68q-72 18 -72 72q14 76 76 76zM310 320h180
q92 0 92 -116v-196q0 -8 -8 -8h-352q-8 0 -8 8v200q0 112 96 112zM50 292h108q32 0 40 -44v-112q0 -8 -8 -8h-172q-8 0 -8 8v116q5 40 40 40zM638 292h108q32 0 40 -44v-112q0 -8 -8 -8h-172q-8 0 -8 8v116q5 40 40 40z" />
    <glyph glyph-name="uniE124" unicode="&#xe124;" 
d="M174 744h544q44 0 56 -48v-560q0 -40 -56 -48h-32v-40q0 -40 -56 -48h-544q-56 8 -56 48v560q0 40 56 48h32v40q0 40 56 48zM302 592v-100q0 -8 -8 -8h-44q-36 -5 -36 -36v-208q5 -36 36 -36h392q36 5 36 36v208q-5 36 -36 36h-44q-8 0 -8 8v100q-5 36 -36 36h-216
q-36 -5 -36 -36zM62 564v-472q5 -60 60 -60h472q60 7 60 56h-480q-56 8 -56 48v488h-4q-44 0 -52 -60zM358 580h180q8 -1 8 -8v-72q0 -8 -8 -8h-180q-8 0 -8 8v72q1 8 8 8zM346 404h12q8 -1 8 -8v-72q-5 -40 -40 -40q-25 0 -36 36l12 8h4q12 0 12 -20h20v88q1 8 8 8z
M430 404q50 0 56 -60q-7 -60 -56 -60q-46 0 -56 60q7 60 56 60zM502 404h28q56 0 56 -32v-8l-12 -16q6 0 16 -16v-12q0 -32 -40 -32h-48q-8 0 -8 8v100q1 8 8 8zM402 352v-24q8 -20 28 -20q28 0 28 28v28q-10 20 -32 20q-24 -8 -24 -32zM518 380v-24h32q6 0 12 12v4
q0 8 -8 8h-36zM518 336v-28h24q21 0 24 12v4q0 6 -12 12h-36z" />
    <glyph glyph-name="uniE125" unicode="&#xe125;" 
d="M108 548h660q8 -1 8 -8v-452q0 -8 -8 -8h-72v-72q0 -8 -8 -8h-660q-8 0 -8 8v452q1 8 8 8h72v72q1 8 8 8zM132 516v-404h612v404h-612zM172 472h228q8 -1 8 -8v-216q0 -8 -8 -8h-220q-8 0 -8 8v224zM480 472h220q8 -1 8 -8v-20q0 -8 -8 -8h-220q-8 0 -8 8v20q1 8 8 8z
M244 404v-4q8 -40 40 -40h16q32 17 32 44q0 33 -48 40q-40 -9 -40 -40zM52 436v-404h612v48h-556q-8 0 -8 8v348h-48zM480 376h220q8 -1 8 -8v-24q0 -8 -8 -8h-220q-8 0 -8 8v24q1 8 8 8zM232 324v-28q0 -29 12 -32h88q8 0 8 8v68q0 8 -8 8h-88q-12 -4 -12 -24zM480 276h220
q8 -1 8 -8v-20q0 -8 -8 -8h-220q-8 0 -8 8v20q1 8 8 8zM180 176h220q8 -1 8 -8v-20q0 -8 -8 -8h-220q-8 0 -8 8v20q1 8 8 8zM480 176h220q8 -1 8 -8v-20q0 -8 -8 -8h-220q-8 0 -8 8v20q1 8 8 8z" />
    <glyph glyph-name="uniE126" unicode="&#xe126;" 
d="M742 468q-20 103 -89 180l-133 -181q7 -16 9 -24h217v2q0 5 -4 23zM702 645q24 -31 41 -66q6 -13 15 -34q9 -26 15 -49q9 -44 9 -52q0 -23 -22 -34q-7 -3 -11 -3h-224q-16 3 -26 16l-7 17q-8 22 -8 23v8q0 9 23 41q13 17 27 36q82 111 90 121q10 15 29 15q12 0 20 -6
t29 -33zM429 763l-16 1h-40q-14 0 -47 -6q-14 -3 -33 -8q-27 -8 -48 -19q-62 -29 -105 -75q-92 -96 -102 -234v-43q0 -21 5 -46q4 -20 9 -36q7 -26 21 -55q25 -54 66 -96q95 -97 233 -108h41q-3 0 16 1q55 6 103 27q45 20 79 48q95 76 125 193h-234q-44 -52 -109 -52
q-60 0 -102 43q-41 43 -41 103q0 53 34 94q38 46 101 51h17l132 188q-51 23 -105 29zM547 768q4 -2 9 -5q14 -10 14 -29q0 -11 -20 -39q-26 -37 -23 -33q-14 -21 -20 -29q-14 -19 -38 -54q-27 -38 -39 -55q-10 -14 -25 -14h-17q-48 -4 -76 -38q-25 -31 -25 -71q0 -44 30 -77
q31 -33 76 -33q8 0 20 2q7 1 16 5q4 1 13 6q15 9 20 14q26 23 29 24q9 1 7 1h242q32 -5 32 -36q0 -10 -11 -41q-37 -105 -123 -177q-39 -31 -84 -53q-59 -27 -126 -33q-11 -1 -12 -1h-47q-151 13 -256 119q-41 41 -70 99q-15 31 -27 71q-14 49 -14 85v49q12 150 112 256
q46 49 110 80q67 34 146 39h39q9 -1 30 -2q53 -6 108 -30z" />
    <glyph glyph-name="uniE127" unicode="&#xe127;" 
d="M703 537q21 0 35 -15q14 -14 14 -34v-332q0 -20 -14 -35q-14 -14 -35 -14h-607q-20 0 -35 14q-14 15 -14 35v332q0 20 14 34q15 15 35 15h607zM239 631q0 12 -12 12h-109q-12 0 -12 -12v-47h-10q-40 0 -68 -28t-28 -68v-332q0 -40 28 -68t68 -28h607q40 0 68 28t28 68
v332q0 40 -28 68t-68 28h-464v47zM502 415q43 -42 43 -102t-43 -103q-42 -42 -102 -42q-61 0 -103 42q-43 43 -43 103t43 102q42 43 103 43q60 0 102 -43zM525 188q51 52 51 125t-51 125q-52 51 -125 51q-74 0 -125 -51q-52 -52 -52 -125t52 -125q51 -52 125 -52
q73 0 125 52zM466 247q27 27 27 66t-27 66q-28 27 -66 27q-39 0 -67 -27q-27 -27 -27 -66t27 -66q28 -28 67 -28q38 0 66 28zM697 434q8 0 8 8v48q0 8 -8 8h-127q-7 0 -7 -8v-48q0 -8 7 -8h127zM198 434q8 0 8 8v48q0 8 -8 8h-52q-8 0 -8 -8v-48q0 -8 8 -8h52z" />
  </font>
</defs>
</svg>
