<?xml version="1.0" standalone="no"?>
<!DOCTYPE svg PUBLIC "-//W3C//DTD SVG 1.1//EN" "http://www.w3.org/Graphics/SVG/1.1/DTD/svg11.dtd" >
<svg>
<metadata>
Created by FontForge 20090914 at Wed Jul 27 03:21:23 2016
 By www-data
</metadata>
<defs>
<font id="iconic" horiz-adv-x="751" >
  <font-face 
    font-family="iconic"
    font-weight="400"
    font-stretch="normal"
    units-per-em="800"
    panose-1="2 0 5 3 0 0 0 0 0 0"
    ascent="750"
    descent="-50"
    bbox="-0.000976562 -0.322339 1050 801.051"
    underline-thickness="0"
    underline-position="0"
    unicode-range="U+B001-U+B021"
  />
<missing-glyph 
d="M40 0v500h671v-500h-671zM80 40h591v420h-591v-420z" />
    <glyph glyph-name=".notdef" 
d="M40 0v500h671v-500h-671zM80 40h591v420h-591v-420z" />
    <glyph glyph-name="uniB001" unicode="&#xb001;" 
d="M73 577c15.333 24.667 33.668 42.0039 55.001 52.0039c2.66699 2 5 2.66699 7 2c0.666992 0 1.66699 -1 3 -3c44.667 -75.333 72.334 -123 83.001 -143c-10.667 -8.66699 -19 -13.334 -25 -14.001c-16.667 0 -30 -5 -40 -15c-8.66699 -8.66699 -13.667 -20 -15 -34
c-1.33301 -12 -0.333008 -25.333 3 -40c8 -29.333 22.333 -61.333 43 -96c0.666992 -0.666992 1.33398 -1.66699 2.00098 -3l2 -3c20 -34.667 41.333 -62.667 64 -84c10.667 -10.667 22 -18.334 34 -23.001c13.333 -5.33301 25.666 -6 36.999 -2c14 4 24.667 13 32 27
c3.33301 5.33301 11.333 10.666 24 15.999v0c12.667 -18.667 41.667 -65.667 87 -141c0.666992 -2 1 -3.66699 1 -5c-0.666992 -1.33301 -2.33398 -3 -5.00098 -5c-19.333 -13.333 -43.333 -21 -72 -23c-16.667 -1.33301 -34 -0.333008 -52 3
c-88.667 17.333 -165 79.666 -229 186.999l-3 5l-2 5c-64 107.333 -82.667 204 -56 290c5.33301 17.333 12.666 33 21.999 47zM79.002 211.004c70 -117.333 155.003 -186 255.003 -206c20.667 -4 41 -5.33301 61 -4c36.667 2.66699 67.334 13 92.001 31
c10 7.33301 16.667 15.666 20 24.999c3.33301 12 1.66602 23.667 -5.00098 35c-57.333 95.333 -89 146.333 -95 153c-10 10 -23.333 11.667 -40 5c-20.667 -8.66699 -34.667 -19.667 -42 -33c-3.33301 -5.33301 -6.66602 -8.66602 -9.99902 -9.99902
c-3.33301 -0.666992 -7.33301 0 -12 2c-7.33301 2.66699 -14.333 7.33398 -21 14.001c-20 19.333 -39.333 44.666 -58 75.999c0 0.666992 -0.666992 1.66699 -2 3c0 0.666992 -0.666992 1.66699 -2 3c-18.667 31.333 -31.667 60.333 -39 87c-2 9.33301 -2.66699 18 -2 26
c0.666992 4.66699 2 8.33398 4 11.001c2.66699 2.66699 7 4 13 4c15.333 0 31.666 7.33301 48.999 22c14 11.333 19 23.666 15 36.999c-2.66699 8.66699 -32.334 60.667 -89.001 156c-6.66699 11.333 -16 18.333 -28 21c-10.667 2 -21.334 0.333008 -32.001 -5
c-27.333 -13.333 -51 -35.333 -71 -66c-10.667 -16.667 -19.334 -35.334 -26.001 -56.001c-30 -97.333 -10 -204.666 60 -321.999l2 -5zM281.005 795.004l-6 3c-10 5.33301 -17.333 3.66602 -22 -5.00098l-39 -74c-2 -3.33301 -2.33301 -7 -1 -11s3.66602 -7 6.99902 -9
l6 -3c10 -5.33301 17.333 -3.66602 22 5.00098l39 74c2 3.33301 2.33301 7 1 11s-3.66602 7 -6.99902 9zM407.005 508.004c4 0 7.33301 1.66699 10 5c3.33301 2.66699 5 6 5 10v6c-0.666992 12 -5.66699 18 -15 18l-84 -1c-4 0 -7.33301 -1.33301 -10 -4
c-3.33301 -3.33301 -5 -7 -5 -11l1 -6c0 -11.333 4.66699 -17 14 -17h84zM300.005 615.004l89.999 57c3.33301 2 5.33301 5 6 9s0 7.66699 -2 11l-4 8c-5.33301 8 -12.333 9.33301 -21 4l-90 -56c-3.33301 -2 -5.33301 -5 -6 -9c-1.33301 -4 -0.666016 -7.66699 2.00098 -11
l4 -8c5.33301 -8 12.333 -9.66699 21 -5z" />
    <glyph glyph-name="uniB002" unicode="&#xb002;" 
d="M203 409c-28 26.667 -42 59.334 -42 98.001c0 38 14 70.667 42 98s62 41 102 41c39.333 0 73.333 -13.667 102 -41c28 -27.333 42 -60 42 -98c0 -38.667 -14 -71.334 -42 -98.001c-28.667 -27.333 -62.667 -41 -102 -41c-40 0 -74 13.667 -102 41zM89 710
c-58.667 -60 -87.999 -132.333 -87.999 -217c0 -153.333 85.333 -309.333 256 -468c17.333 -16 32.333 -24 45 -24c13.333 -0.666992 29 7.33301 47 24c43.333 40 86.666 89.333 129.999 148c86 117.333 129 224 129 320c0 84.667 -29.667 157 -89 217
c-60 59.333 -132 89 -216 89s-155.333 -29.667 -214 -89z" />
    <glyph glyph-name="uniB003" unicode="&#xb003;" 
d="M976 55h-921v690h921v-690zM1029 754c0 12 -4.33301 22.333 -13 31s-19.334 13 -32.001 13h-938c-12.667 0 -23.334 -4.33301 -32.001 -13s-13 -19 -13 -31v-708c0 -12 4.33301 -22.333 13 -31s19.334 -13 32.001 -13h938c12.667 0 23.334 4.33301 32.001 13s13 19 13 31
v708zM98 662v-37h38v37h-38zM98 587v-37h38v37h-38zM212 625v37h-38v-37h38zM174 625h-38v-38h38v38zM174 700h-38v-38h38v38zM98 512v-37h38v37h-38zM174 550h-38v-38h38v38zM98 437v-37h38v37h-38zM174 475h-38v-38h38v38zM98 362v-37h38v37h-38zM174 400h-38v-38h38v38z
M98 287v-37h38v37h-38zM174 325h-38v-38h38v38zM136 212h-38v-37h38v37zM174 250h-38v-38h38v38zM136 137h-38v-37h38v37zM174 175h-38v-38h38v38zM781 700h-38v-38h38v38zM819 625v37h-38v-37h38zM856 700h-37v-38h37v38zM705 700h-38v-38h38v38zM743 625v37h-38v-37h38z
M629 700h-38v-38h38v38zM667 625v37h-38v-37h38zM553 700h-38v-38h38v38zM591 625v37h-38v-37h38zM477 700h-38v-38h38v38zM515 625v37h-38v-37h38zM401 700h-38v-38h38v38zM439 625v37h-38v-37h38zM326 700h-38v-38h38v38zM363 625v37h-37v-37h37zM250 700h-38v-38h38v38z
M288 625v37h-38v-37h38zM932 137v38h-38v-38h38zM932 212v38h-38v-38h38zM856 100h38v37h-38v-37zM856 175h38v37h-38v-37zM819 175v-38h37v38h-37zM932 287v38h-38v-38h38zM856 250h38v37h-38v-37zM932 362v38h-38v-38h38zM856 325h38v37h-38v-37zM932 437v38h-38v-38h38z
M856 400h38v37h-38v-37zM932 512v38h-38v-38h38zM856 475h38v37h-38v-37zM932 587v38h-38v-38h38zM856 550h38v37h-38v-37zM932 700h-38v-38h38v38zM894 625v37h-38v-37h38zM250 100h38v37h-38v-37zM212 175v-38h38v38h-38zM174 100h38v37h-38v-37zM326 100h37v37h-37v-37z
M288 175v-38h38v38h-38zM401 100h38v37h-38v-37zM363 175v-38h38v38h-38zM477 100h38v37h-38v-37zM439 175v-38h38v38h-38zM553 100h38v37h-38v-37zM515 175v-38h38v38h-38zM629 100h38v37h-38v-37zM591 175v-38h38v38h-38zM705 100h38v37h-38v-37zM667 175v-38h38v38h-38z
M781 100h38v37h-38v-37zM743 175v-38h38v38h-38zM361 502h308v63h-308v-63zM702 528v-61h83l-40 31l40 30h-83zM329 467v61h-84l41 -30l-41 -31h84zM368 390h57v27h-57v-27zM228 390h112v27h-112v-27zM613 390h121v27h-121v-27zM803 417h-40v-27h40v27zM585 417h-132v-27
h132v27zM324 319h95v27h-95v-27zM228 319h67v27h-67v-27zM492 346h-44v-27h44v27zM651 346h-130v-27h130v27zM803 346h-124v-27h124v27zM803 248v27h-94v-27h94zM588 275h-106v-27h106v27zM228 248h130v27h-130v-27zM681 275h-65v-27h65v27zM386 248h67v27h-67v-27z" />
    <glyph glyph-name="uniB004" unicode="&#xb004;" 
d="M690 423c-12.667 0 -19 -6.33301 -19 -19v-332h-79v273c0 12 -6.66699 18 -20 18h-41c-12.667 0 -19 -6 -19 -18v-273h-80v222c0 12 -6.33301 18 -19 18h-42c-12.667 0 -19 -6 -19 -18v-222h-80v149c0 12.667 -6.33301 19 -19 19h-41c-12.667 0 -19 -6.33301 -19 -19
v-149h-80v118c0 12.667 -6.33301 19 -19 19h-39c-12.667 0 -19 -6.33301 -19 -19v-151c0 -24.667 12.667 -37 38 -37h636c25.333 0 38 12.333 38 37v365c0 12.667 -6.33301 19 -19 19h-39zM336 622l76 -73l20 -19l20 19l107 105l21 19l-21 20l-50 49h197v-192l-51 50l-20 19
l-20 -19l-183 -178l-14 14l-62 59l-20 19l-20 -19l-200 -194l-55 54l200 194zM336 436l55.998 -53.999l14 -14l6 -5c8.66699 -8.66699 15.334 -13 20.001 -13c4.66699 0.666992 11.334 5 20.001 13l183 178l73 -71c10 -9.33301 21.333 -11.666 34 -6.99902l2 1h2l4 2l4 4
c5.33301 5.33301 8.33301 12.333 9 21v275c0 16 -7.66699 26 -23 30l-4 1h-6h-253c-26.667 0 -44 -3 -52 -9c-2.66699 -2.66699 -4.66699 -6.33398 -6 -11.001c-6 -12 -3.66699 -23 7 -33l73 -71l-67 -65l-76 73c-6 6 -9 9.33301 -9 10
c-7.33301 6 -17.666 2.66699 -30.999 -10l-13 -13l-83 -80l-206 -201c-9.33301 -8.66699 -14 -19.334 -14 -32.001s4.66699 -23.667 14 -33l69 -67c9.33301 -8.66699 20.333 -13 33 -13c13.333 0 24.666 4.33301 33.999 13z" />
    <glyph glyph-name="uniB005" unicode="&#xb005;" 
d="M146 531c-8 0 -12 -3.66699 -12 -11v-37c0 -7.33301 3.66699 -11 11 -11l339 -3c7.33301 0 11 3.66699 11 11v37c0 7.33301 -3.66699 11 -11 11zM144 355c-7.33301 0 -11 -3.66699 -11 -11v-38c0 -7.33301 3.66699 -11 11 -11l338 -3c7.33301 0 11 3.66699 11 11l1 37
c0 8 -3.66699 12 -11 12zM143 233c-7.33301 0 -11 -3.66699 -11 -11l-1 -37c0 -8 3.66699 -12 11 -12l339 -3c7.33301 0 11 3.66699 11 11l1 38c0 7.33301 -4 11 -12 11zM386 736c0 -14.667 -0.333008 -70.999 -1 -168.999c0 -8.66699 4 -13 12 -13
c98 -0.666992 154.333 -1 169 -1c-2.66699 -275.333 -4 -439 -4 -491c-8 0 -91.667 0.666992 -251 2s-243 2 -251 2c0 5.33301 1 117.333 3 336c2 215.333 3 327.666 3 336.999c15.333 -0.666992 122 -1.66699 320 -3zM608 1.00098c8.66699 0 13.001 4.33301 13.001 13
c0.666992 98.667 1 155.334 1 170.001h2l1 111h-2c0.666992 15.333 1.66699 113 3 293c0 4 -1.33301 7.33301 -4 10l-5 5l-180 183l-5 5c-2 2.66699 -5 4 -9 4h-7l-396 4c-8.66699 0 -13 -4.33301 -13 -13c-2.66699 -307.333 -4 -469.333 -4 -486h-2l-1 -110h2
c-0.666992 -14.667 -1.33398 -71.334 -2.00098 -170.001c-0 -8.66699 4.33301 -13 13 -13z" />
    <glyph glyph-name="uniB006" unicode="&#xb006;" 
d="M320 520l99 213l98 -213l6 -13c0.666992 0 5.66699 -0.666992 15 -2l233 -28l-172 -159l-11 -10l3 -15l45 -230l-204 114l-14 7l-13 -7l-204 -114l45 230l3 15l-11 10l-172 159l233 28l15 2zM143 45c0 -15.333 6.33301 -27.333 19 -36
c14.667 -11.333 30.667 -12.333 48 -3l209 117l208 -117c17.333 -9.33301 33.333 -8.33301 48 3c12.667 8.66699 19 20.667 19 36c0 3.33301 -0.333008 6.33301 -1 9l-46 235l175 162c9.33301 8.66699 14 19.667 14 33c0 4.66699 -0.666992 9.33398 -2 14.001
c-6 17.333 -18.333 27.333 -37 30l-237 28l-101 217c-8 17.333 -21.333 26 -40 26c-19.333 0 -33 -8.66699 -41 -26l-100 -217l-238 -28c-18.667 -2.66699 -31 -12.667 -37 -30c-1.33301 -4.66699 -2 -9.33398 -2 -14.001c0 -13.333 4.66699 -24.333 14 -33l176 -162
l-47 -235c-0.666992 -2.66699 -1 -5.66699 -1 -9z" />
    <glyph glyph-name="uniB007" unicode="&#xb007;" 
d="M118 118c78 -78 172 -117 282 -117s204 39 282 117s117 172 117 282c0 35.333 -4.66699 70 -14 104l-323 -332l-233 189l71 102l158 -123l280 271c-78 125.333 -190.667 188 -338 188c-110 0 -204 -39 -282 -117s-117 -172 -117 -282s39 -204 117 -282z" />
    <glyph glyph-name="uniB008" unicode="&#xb008;" 
d="M15 553c-8.66699 0 -13 -4.33301 -13 -13v-526c0 -9.33301 4.33301 -14 13 -14h72c8.66699 0 13 4.66699 13 14v526c0 8.66699 -4.33301 13 -13 13h-72zM212 312c-8.66699 0 -13 -4.66699 -13 -14v-284c0 -9.33301 4.33301 -14 13 -14h71c9.33301 0 14 4.66699 14 14v284
c0 9.33301 -4.66699 14 -14 14h-71zM409 677c-9.33301 0 -14 -4.66699 -14 -14v-618c0 -8.66699 4.66699 -13 14 -13h71c9.33301 0 14 4.33301 14 13v618c0 9.33301 -4.66699 14 -14 14h-71zM605 483c-8.66699 0 -13 -4.33301 -13 -13v-456c0 -9.33301 4.33301 -14 13 -14
h72c8.66699 0 13 4.66699 13 14v456c0 8.66699 -4.33301 13 -13 13h-72zM802 799c-9.33301 0 -14 -4.33301 -14 -13v-772c0 -9.33301 4.66699 -14 14 -14h71c9.33301 0 14 4.66699 14 14v772c0 8.66699 -4.66699 13 -14 13h-71z" />
    <glyph glyph-name="uniB009" unicode="&#xb009;" 
d="M54 662h27.002c-2.66699 -12 -3.33398 -23 -2.00098 -33l2 -22h433l3 22c1.33301 9.33301 0.666016 20.333 -2.00098 33h25v-619h-486v619zM190.002 687h58.001l1 23c0 0.666992 0.333008 2 1 4c2.66699 12.667 9.33398 22.334 20.001 29.001c6.66699 4 16 6 28 6
c11.333 0 20.666 -2 27.999 -6c10.667 -6.66699 17 -16 19 -28l1 -5l2 -23h57c24.667 0 42 -5.66699 52 -17c3.33301 -4 5.66602 -8.33301 6.99902 -13h-333c2 5.33301 4.66699 9.66602 8 12.999c10 11.333 27 17 51 17zM547.003 2c12.667 0 23.334 4.33301 32.001 13
s13 19.334 13 32.001v612c0 12 -4.33301 22.667 -13 32c-8.66699 8.66699 -19.334 13 -32.001 13h-54c-20 21.333 -49.333 32 -88 32h-15c-7.33301 21.333 -20 37.666 -38 48.999c-14.667 9.33301 -32.667 14 -54 14s-39.333 -4.66699 -54 -14
c-18.667 -11.333 -31.667 -27.666 -39 -48.999h-15c-38 0 -67 -10.667 -87 -32h-57c-12.667 0 -23.334 -4.33301 -32.001 -13c-8.66699 -9.33301 -13 -20 -13 -32v-612c0 -12.667 4.33301 -23.334 13 -32.001s19.334 -13 32.001 -13h501zM297.003 705c-16 0 -24 -8 -24 -24
c0 -16.667 8 -25 24 -25s24 8.33301 24 25c0 16 -8 24 -24 24zM463.003 488c4.66699 0 7 2.33301 7 7v32c0 4 -2.33301 6 -7 6h-235c-4.66699 0 -7 -2 -7 -6v-32c0 -4.66699 2.33301 -7 7 -7h235zM130.003 533c-4 0 -6 -2 -6 -6v-32c0 -4.66699 2 -7 6 -7h33
c4 0 6 2.33301 6 7v32c0 4 -2 6 -6 6h-33zM463.003 372c4.66699 0 7 2.33301 7 7v32c0 4.66699 -2.33301 7 -7 7h-235c-4.66699 0 -7 -2.33301 -7 -7v-32c0 -4.66699 2.33301 -7 7 -7h235zM130.003 418c-4 0 -6 -2.33301 -6 -7v-32c0 -4.66699 2 -7 6 -7h33
c4 0 6 2.33301 6 7v32c0 4.66699 -2 7 -6 7h-33zM463.003 257c4.66699 0 7 2.33301 7 7v32c0 4 -2.33301 6 -7 6h-235c-4.66699 0 -7 -2 -7 -6v-32c0 -4.66699 2.33301 -7 7 -7h235zM130.003 302c-4 0 -6 -2 -6 -6v-32c0 -4.66699 2 -7 6 -7h33c4 0 6 2.33301 6 7v32
c0 4 -2 6 -6 6h-33zM377.003 157c0 4.66699 -2.33301 7 -7 7h-142c-4.66699 0 -7 -2.33301 -7 -7v-32c0 -4.66699 2.33301 -7 7 -7h142c4.66699 0 7 2.33301 7 7v32zM130.003 164c-4 0 -6 -2.33301 -6 -7v-32c0 -4.66699 2 -7 6 -7h33c4 0 6 2.33301 6 7v32
c0 4.66699 -2 7 -6 7h-33z" />
    <glyph glyph-name="uniB010" unicode="&#xb010;" 
d="M700 0c27.333 0 51.0039 10 71.0039 30c19.333 19.333 29 43 29 71v548c0 28 -9.66699 51.667 -29 71c-20 20 -43.667 30 -71 30v0v-75c0 -20.667 -7.33301 -38.334 -22 -53.001s-32.334 -22 -53.001 -22s-38.334 7.33301 -53.001 22s-22 32.334 -22 53.001v75h-299v-75
c0 -20.667 -7.33301 -38.334 -22 -53.001s-32.334 -22 -53.001 -22s-38.334 7.33301 -53.001 22s-22 32.334 -22 53.001v75v0c-27.333 0 -51 -10 -71 -30c-19.333 -19.333 -29 -43 -29 -71v-548c0 -27.333 9.66699 -51 29 -71c20 -20 43.667 -30 71 -30h599zM750.004 550
v-500h-699v500h699zM431.004 180c18.667 -16 43.332 -24.001 73.999 -24.001c28.667 0 53 8 73 24c20 16.667 30 38 30 64c0 40 -19.333 65.667 -58 77v1c22 7.33301 36.333 18 43 32c3.33301 7.33301 5 20 5 38c0 20 -7.66699 37 -23 51c-16 15.333 -37.667 23 -65 23
s-49.666 -7.33301 -66.999 -22c-18 -15.333 -27 -34.666 -27 -57.999c0 -30 16 -52.333 48 -67v-1c-40 -17.333 -60 -44.333 -60 -81c0 -22.667 9 -41.667 27 -57zM506.002 436.999c33.333 0 50 -16.333 50 -49c0 -26 -15 -44 -45 -54c-38.667 10 -57.667 28.333 -57 55
c0 32 17.333 48 52 48zM565.002 238.999c0 -35.333 -20 -53.001 -60 -53.001c-18 0 -32.667 5.66699 -44 17c-11.333 10.667 -16.333 24 -15 40c0 30.667 18 51.334 54 62.001c43.333 -12.667 65 -34.667 65 -66zM351.002 199.998h-98l10 18c65.333 62.667 98 116 98 160
c0 24 -7.66699 44 -23 60c-17.333 18.667 -41.333 28 -72 28c-32.667 0 -61 -10.333 -85 -31l12 -28c20 16.667 41 25 63 25c39.333 0 59 -19.333 59 -58c0 -26.667 -40.667 -79 -122 -157l-42 -31v-36h200v50zM151.002 799.998v-150h50v150h-50zM600.002 799.998v-150h50
v150h-50z" />
    <glyph glyph-name="uniB011" unicode="&#xb011;" 
d="M185 205c1.33301 -22.667 14.001 -46.334 38.001 -71.001l-223 -101l16 -32l240 106c63.333 -41.333 158.666 -62 285.999 -62c143.333 0 246 26.667 308 80c30.667 26.667 47 53.334 49 80.001v262l-357 -155l-357 155v-262zM542.001 356l508 221l-508 221l-508 -221z
" />
    <glyph glyph-name="uniB012" unicode="&#xb012;" 
d="M957 798l-273 -133v-663l273 133v663zM275 798l-273 -133v-663l273 133v663zM517 531c10.667 9.33301 16 21 16 35c0 13.333 -5.33301 25 -16 35c-10 10 -22.333 15 -37 15s-27.334 -5 -38.001 -15c-10 -10 -15 -21.667 -15 -35c0 -14 5 -25.667 15 -35
c10.667 -10 23.334 -15 38.001 -15s27 5 37 15zM616 665l-273 133v-663l273 -133v663zM558 639c22 -22 32.999 -48 32.999 -78c0 -55.333 -31.667 -111.333 -95 -168c-11.333 -10 -22.666 -10 -33.999 0c-62.667 56.667 -94 112.667 -94 168c0 30 10.667 56 32 78
c22 21.333 48.333 32 79 32s57 -10.667 79 -32z" />
    <glyph glyph-name="uniB013" unicode="&#xb013;" 
d="M348 627c0 31.333 11.333 58.333 34 81c22.667 22 50 33 82 33c31.333 0 58.333 -11 81 -33c22.667 -22.667 34 -49.667 34 -81h-231zM2 627v-170h404v57h115v-57h404v170h-288c0 47.333 -17 87.666 -51 120.999s-74.667 50 -122 50c-48 0 -89 -16.667 -123 -50
s-51 -73.666 -51 -120.999h-288zM521 400v-57h-115v57h-404v-398h923v398h-404z" />
    <glyph glyph-name="uniB014" unicode="&#xb014;" 
d="M118 681c-78 -77.333 -117 -171 -117 -281s39 -203.667 117 -281c77.333 -78 171 -117 281 -117s203.667 39 281 117c78 77.333 117 171 117 281s-39 203.667 -117 281c-77.333 78 -171 117 -281 117s-203.667 -39 -281 -117zM188 189c-58.667 58 -88 128.333 -88 211
s29.333 153 88 211c58 58.667 128.333 88 211 88c82 0 152.333 -29.333 211 -88c58 -58 87 -128.333 87 -211s-29 -153 -87 -211c-58.667 -58.667 -129 -88 -211 -88c-82.667 0 -153 29.333 -211 88zM399 599h-50v-249h199v50h-149v199z" />
    <glyph glyph-name="uniB015" unicode="&#xb015;" 
d="M405 798c88 0 175.334 -33.333 262.001 -100c0 6 20.667 27 62 63h7v-169c0 -8 -4.33301 -12 -13 -12h-156c-8 0 -12 4 -12 12c5.33301 0 26 21 62 63c-72.667 54 -145.334 81 -218.001 81l-94 -13c-16 6.66699 -24 13 -24 19v25c0 20.667 41.333 31 124 31zM37.001 736
l169 -0.00195312c8 -1.33301 12 -5.66602 12 -12.999v-156c0 -8 -4 -12 -12 -12c0 5.33301 -21 26 -63 62h-6c-50 -74 -75 -148.667 -75 -224c8.66699 -59.333 13 -92.666 13 -99.999l-25 -19h-13c-24.667 9.33301 -37 47 -37 113v12c0 102 33.333 191.333 100 268
c-6 0 -27 20.667 -63 62v7zM742.001 523.998h25c20.667 0 31 -41.667 31 -125v-12c0 -85.333 -33.333 -170.666 -100 -255.999c6 0 27 -20.667 63 -62v-7h-169c-8 0 -12 4.33301 -12 13v156c1.33301 8 5.33301 12 12 12c0 -5.33301 21 -26 63 -62c54 69.333 81 144 81 224
c0 9.33301 -4.33301 40.666 -13 93.999c6.66699 16.667 13 25 19 25zM75.001 217.998h156.002c8 -1.33301 12 -5.33301 12 -12c-5.33301 0 -26 -21 -62 -63v-6c74 -50 148.667 -75 224 -75c59.333 8.66699 92.666 13 99.999 13l19 -25v-13
c-9.33301 -24.667 -47 -37 -113 -37h-12c-102 0 -191.333 33.333 -268 100c0 -6 -20.667 -27 -62 -63h-7v169c1.33301 8 5.66602 12 12.999 12z" />
    <glyph glyph-name="uniB016" unicode="&#xb016;" 
d="M683 711c10 0 36.001 -155.667 78.001 -467l39 -238l-11 -6h-778l-11 6c55.333 434 86.666 669 93.999 705h589zM117.001 678v-6c0 -12.667 -13 -123.667 -39 -333l161 155h11l44 -100h6c81.333 93.333 122 145.333 122 156c0 24 -3.66699 66.667 -11 128h-294z
M444.001 678c8 -80.667 13.668 -129 17.001 -145c-90.667 -110.667 -140.667 -166 -150 -166c44.667 -92 68.667 -138.333 72 -139c31.333 0 105.666 59.333 222.999 178l100 -23v6l-39 289h-223zM83.002 294l-11 6l-33 -267h450c-26 108.667 -39 170 -39 184
c-7.33301 0 -35 -11.333 -83 -34c-85.333 168.667 -128 255.667 -128 261zM617.002 372c0 -5.33301 -46.333 -51.667 -139 -139l44 -200h239c-28.667 207.333 -47 311 -55 311z" />
    <glyph glyph-name="uniB017" unicode="&#xb017;" 
d="M87 732l182 0.000976562c6 0 12.667 -6.66699 20 -20v-14c0 -6 -6.66699 -12.667 -20 -20h-135c-31.333 0 -47 -15.667 -47 -47v-134c0 -6.66699 -6.66699 -13.334 -20 -20.001h-13c-7.33301 0 -16.333 9 -27 27v114c0 60 20 98 60 114zM504 732.001
l208.002 -0.000976562c40 -16 60 -54 60 -114v-114c0 -7.33301 -9 -16.333 -27 -27h-13c-6.66699 0 -13.334 6.66699 -20.001 20v134c0 31.333 -15.667 47 -47 47h-161c-6.66699 0 -13.334 6.66699 -20.001 20v14c0 6.66699 6.66699 13.334 20 20.001zM40.002 396
l718.999 0.000976562c26.667 -2.66699 40 -9.33398 40 -20.001v-20c-4.66699 -13.333 -18 -20 -40 -20h-719c-23.333 0 -36.666 6.66699 -39.999 20v20c4.66699 13.333 18 20 40 20zM54.001 255.001l12.999 0.000976562c6.66699 0 13.334 -6.66699 20.001 -20v-134
c0 -31.333 15.667 -47 47 -47h135c6 0 12.667 -6.66699 20 -20v-14c0 -6.66699 -6.66699 -13.334 -20 -20.001h-182c-40 16 -60 54 -60 114v114c0 7.33301 9 16.333 27 27zM732 255.002l13.001 -0.000976562c7.33301 0 16.333 -9 27 -27v-114c0 -60 -20 -98 -60 -114h-208
c-6.66699 0 -13.334 6.66699 -20.001 20v14c0 6 6.66699 12.667 20 20h161c31.333 0 47 15.667 47 47v134c0 6.66699 6.66699 13.334 20 20.001z" />
    <glyph glyph-name="uniB018" unicode="&#xb018;" 
d="M375 750c70 0 108.999 -62.333 116.999 -187v-36l-6 -11h6c160 0 240 -15.667 240 -47c12 -4 18 -15.667 18 -35v-36c0 -18 -6 -31.667 -18 -41c8 -20 12 -35.333 12 -46c0 -22.667 -11.667 -48.334 -35 -77.001l6 -11v-6c0 -39.333 -13.667 -76.666 -41 -111.999
c0 -70 -29.333 -105 -88 -105h-158c-45.333 0 -121.666 11.667 -228.999 35v-6c-10 -19.333 -25.667 -29 -47 -29h-105c-31.333 16.667 -47 38 -47 64v375c4 51.333 29.333 77 76 77h70c13.333 0 27.333 -6 42 -18c78 36 117 102.333 117 199c18 35.333 41.333 53 70 53z
M187.999 416l-0.000976562 -292.998c0 -25.333 29 -43 87 -53c76 -15.333 136.667 -23 182 -23h117c31.333 0 47 13.667 47 41v12c0 7.33301 -21.333 13 -64 17l-6 12c1.33301 8 5.33301 12 12 12h35c42.667 0 64 17.333 64 52v24c0 8 -4 12 -12 12h-58
c-6 0 -12 5.66699 -18 17c1.33301 8 5.33301 12 12 12h41c42.667 0 64 17.667 64 53c0 27.333 -25.333 41 -76 41c-11.333 0 -17 3.66699 -17 11c0.666992 8 4.33398 12 11.001 12h36c38.667 0 58 13.667 58 41c0 31.333 -29.333 47 -88 47c-60.667 4 -123 6 -187 6
c0 4 -2 6 -6 6c11.333 25.333 17 52.666 17 81.999v47c0 37.333 -17.333 68.333 -52 93h-18c-8 0 -19.667 -43 -35 -129c-22.667 -44.667 -69.667 -87.667 -141 -129c-3.33301 -6.66699 -5 -14.334 -5 -23.001zM46.998 428.002v-334c0 -31.333 11.667 -47 35 -47h64
c12 4 18 15.667 18 35v352c0 23.333 -15.667 35 -47 35h-29c-27.333 0 -41 -13.667 -41 -41zM110.998 141.002h6c6 0 14 -8 24 -24v-23c0 -6 -8 -14 -24 -24h-23c-6 0 -14 8 -24 24v6c0 27.333 13.667 41 41 41zM99.998 111.002v-17h5c8 0 12 3.66699 12 11v6h-17z" />
    <glyph glyph-name="uniB019" unicode="&#xb019;" 
d="M177 700l7 0.000976562c-18.667 -20 -28 -39 -28 -57v-7c56 -6 84 -15.333 84 -28v-21c0 -14 -25.667 -28.333 -77 -43v8l28 35v21c-56.667 3.33301 -85 17.666 -85 42.999c14 32.667 37.667 49 71 49zM431 700.001l7 0.000976562c-18.667 -20 -28 -39 -28 -57v-7
c56.667 -6 85 -15.333 85 -28v-21c0 -14 -26 -28.333 -78 -43v8l28 35v21c-56 4.66699 -84 19 -84 43c0 21.333 23.333 37.666 70 48.999zM318 672.002h6.99902c-18.667 -20 -28 -39 -28 -57v-7c56.667 -6 85 -15.333 85 -28v-21c0 -14.667 -26 -29 -78 -43v7
c0 2.66699 9.33301 14.667 28 36v21c-56.667 4.66699 -85 18.667 -85 42c14.667 33.333 38.334 50 71.001 50zM13.999 488.002l601.001 -0.000976562c9.33301 0 14 -9.33301 14 -28h57c63.333 0 101 -33 113 -99v-29c0 -57.333 -94.333 -111.333 -283 -162
c-32.667 -26.667 -56.334 -52.667 -71.001 -78h-261c-14 29.333 -49.333 62.333 -106 99c-52 70.667 -78 141.334 -78 212.001v71c1.33301 9.33301 6 14 14 14zM629 403.001c0 -51.333 -14 -105.667 -42 -163h7c74 25.333 123.333 56 148 92v22c0 32.667 -18.667 49 -56 49
h-57zM14 71h608v-7c-32 -42.667 -124 -64 -276 -64h-70c-151.333 -0 -243.333 21.333 -276 64z" />
    <glyph glyph-name="uniB020" unicode="&#xb020;" 
d="M63 798h408c87.333 -69.333 139.666 -115.333 156.999 -138v-635c0 -6.66699 -8.33301 -15 -25 -25h-572c-5.33301 -0 -15.666 10.333 -30.999 31v704c8 42 29 63 63 63zM57 741v-691h515v572h-94c-8.66699 0 -13 4.33301 -13 13v106h-408zM490 716v-69h82
c-8 15.333 -33.333 38.333 -76 69h-6zM145 578h339c6 0 12.333 -6.33301 19 -19v-383c0 -6 -6.33301 -12.333 -19 -19h-339c-6.66699 0 -13 6.33301 -19 19v383c0 6 6.33301 12.333 19 19zM157 547v-44h69v44h-69zM251 547v-44h157v44h-157zM440 547v-44h31v44h-31zM157 471
v-44h69v44h-69zM251 471v-44h157v44h-157zM440 471v-44h31v44h-31zM157 396v-57h69v57h-69zM251 396v-57h157v57h-157zM440 396v-57h31v57h-31zM157 308v-44h69v44h-69zM251 308v-44h157v44h-157zM440 308v-44h31v44h-31zM157 232v-43h69v43h-69zM251 232l0.000976562 -31
c1.33301 -8 5.66602 -12 12.999 -12h144v43h-157zM440.001 232v-31c1.33301 -8 5.33301 -12 12 -12h19v43h-31z" />
    <glyph glyph-name="uniB021" unicode="&#xb021;" 
d="M281 798c58 -14.667 87 -56.333 87 -125c0 -70 -29 -111.333 -87 -124c-48.667 0 -80 41.333 -94 124c14 83.333 45.333 125 94 125zM524 779.001c54 -24 81 -59.334 81 -106.001v-12c0 -59.333 -31.333 -99 -94 -119h-12c-50.667 0 -80 33.333 -88 100
c0 66.667 37.667 112.334 113 137.001zM81 611h19c50 0 81 -41.667 93 -125c-8 -74.667 -41 -112 -99 -112h-7c-46.667 0 -75.667 37.333 -87 112c11.333 83.333 38.333 125 81 125zM642 555h19c58 -16.667 87 -45.667 87 -87v-57c-5.33301 -58 -30.333 -87 -75 -87h-37
c-50 0 -75 39.667 -75 119c0 74.667 27 112 81 112zM380 474c42 0 102.333 -53.999 181 -161.999c87.333 -64 131 -114 131 -150v-37c-11.333 -83.333 -53 -125 -125 -125h-31c-92 16.667 -152.333 25 -181 25c-92.667 -16.667 -152.667 -25 -180 -25
c-65.333 0 -107 50 -125 150c0 53.333 54 119.666 162 198.999c54 83.333 110 125 168 125zM299 349.001v-62c0 -8.66699 -4 -13 -12 -13h-50c-58 -16.667 -87 -45.667 -87 -87v-25c0 -58 27 -87 81 -87h118v274h-50zM374 274.001v-162c9.33301 -24.667 30 -37 62 -37h113
v199h-50v-137c0 -8 -4.33301 -12 -13 -12h-37c-6.66699 0 -15 8.33301 -25 25v124h-50zM262 224.001h25c8 -1.33301 12 -5.33301 12 -12v-75c0 -8 -4 -12 -12 -12h-56c-6.66699 0 -15 8.33301 -25 25v43c0 12.667 18.667 23 56 31z" />
  </font>
</defs>
</svg>
